<?xml version="1.0" encoding="utf-8"?>
<!-- Generator: Adobe Illustrator 24.1.2, SVG Export Plug-In . SVG Version: 6.00 Build 0)  -->
<svg version="1.1" id="Capa_1" xmlns="http://www.w3.org/2000/svg" xmlns:xlink="http://www.w3.org/1999/xlink" x="0px" y="0px"
	 viewBox="0 0 500 500" style="enable-background:new 0 0 500 500;" xml:space="preserve">
<style type="text/css">
	.st0{fill-rule:evenodd;clip-rule:evenodd;fill:#B493C4;}
	.st1{fill-rule:evenodd;clip-rule:evenodd;fill:#1F183E;}
	.st2{fill:#B493C4;}
	.st3{fill-rule:evenodd;clip-rule:evenodd;fill:#EF7D1A;}
	.st4{fill-rule:evenodd;clip-rule:evenodd;fill:#220C09;}
	.st5{fill:#EF7D1A;}
	.st6{fill-rule:evenodd;clip-rule:evenodd;fill:#31BEF0;}
	.st7{fill-rule:evenodd;clip-rule:evenodd;fill:#041D25;}
	.st8{fill:#3CBFF0;}
	.st9{fill-rule:evenodd;clip-rule:evenodd;fill:#B681B8;}
	.st10{fill-rule:evenodd;clip-rule:evenodd;fill:#23150D;}
	.st11{fill:#B882B8;}
</style>
<g>
	<g>
		<rect x="116.7" y="99.8" class="st0" width="266.6" height="266.6"/>
		<rect x="130.2" y="113.3" class="st1" width="239.6" height="239.6"/>
		<path class="st2" d="M237.6,257h-38.3l-9.8,25.7h-19.7l40.2-101.1h16.9L267,282.7h-19.5L237.6,257z M218.3,206
			c-3.6,10.5-6.8,19.3-9.6,26.5l-3.4,9.1h26.3l-3.4-9.1c-2.8-7.2-6-16-9.6-26.5H218.3z M316.8,270.2c3.5,0,7.1-0.4,10.8-1.1
			c3.8-0.7,7.6-1.6,11.5-3v14.2c-2.3,1-5.8,2-10.7,2.9c-4.8,1-9.7,1.4-14.8,1.4c-5.2,0-10.1-0.7-14.8-2c-4.6-1.3-8.7-3.5-12.2-6.5
			c-3.5-3-6.2-6.9-8.3-11.5c-2-4.8-3-10.5-3-17.3c0-6.6,1-12.4,2.9-17.4c1.9-4.9,4.4-9.1,7.7-12.4c3.2-3.2,6.9-5.7,11.1-7.4
			c4.1-1.6,8.4-2.5,12.9-2.5c4.6,0,8.9,0.7,12.9,2.2c3.9,1.4,7.3,3.6,10.1,6.6c2.9,3,5.1,6.9,6.7,11.6c1.6,4.8,2.4,10.4,2.4,16.9
			c-0.1,2.5-0.1,4.6-0.3,6.4h-48c0.3,3.4,1,6.3,2.3,8.8c1.3,2.3,2.9,4.3,4.9,5.8c2,1.5,4.4,2.6,7.1,3.2
			C310.7,269.8,313.7,270.2,316.8,270.2L316.8,270.2z M309.7,221.6c-2.3,0-4.3,0.4-6.1,1.2c-1.7,0.9-3.2,2-4.6,3.4
			c-1.3,1.5-2.3,3.1-3,5c-0.8,1.9-1.2,3.9-1.5,6.2h28.8c0-2.2-0.3-4.3-0.9-6.2c-0.6-1.9-1.4-3.6-2.5-5c-1.1-1.5-2.5-2.5-4.3-3.4
			C313.9,222,311.9,221.6,309.7,221.6L309.7,221.6z"/>
	</g>
	<g>
		<path d="M147.1,396.2h-7.4l-1.4,3.8H136l6.1-16.8h2.5l6.1,16.8h-2.3L147.1,396.2z M146.5,394.4l-3.1-8.5l-3.1,8.5H146.5z"/>
		<path d="M153.4,389.7c0.5-1,1.3-1.8,2.3-2.4c1-0.6,2-0.8,3.2-0.8c1,0,2,0.2,2.9,0.7c0.9,0.5,1.6,1.1,2,1.9v-7h2.2v17.9h-2.2v-2.5
			c-0.4,0.8-1.1,1.4-1.9,2c-0.9,0.5-1.9,0.8-3,0.8c-1.2,0-2.3-0.3-3.2-0.9s-1.7-1.4-2.3-2.4c-0.5-1.1-0.8-2.2-0.8-3.6
			C152.6,391.9,152.9,390.7,153.4,389.7z M163.3,390.7c-0.4-0.7-1-1.3-1.6-1.7c-0.7-0.4-1.4-0.6-2.3-0.6s-1.6,0.2-2.3,0.6
			c-0.7,0.4-1.2,1-1.6,1.7c-0.4,0.7-0.6,1.6-0.6,2.6c0,1,0.2,1.9,0.6,2.7s0.9,1.3,1.6,1.7c0.7,0.4,1.4,0.6,2.3,0.6s1.6-0.2,2.3-0.6
			c0.7-0.4,1.2-1,1.6-1.7c0.4-0.8,0.6-1.6,0.6-2.6S163.7,391.4,163.3,390.7z"/>
		<path d="M172.3,399.3c-1-0.6-1.8-1.4-2.4-2.4s-0.9-2.3-0.9-3.6c0-1.4,0.3-2.6,0.9-3.6s1.4-1.8,2.4-2.4c1-0.6,2.2-0.8,3.4-0.8
			s2.4,0.3,3.4,0.8c1,0.6,1.8,1.4,2.4,2.4c0.6,1,0.9,2.2,0.9,3.6s-0.3,2.6-0.9,3.6c-0.6,1-1.4,1.8-2.5,2.4c-1,0.6-2.2,0.8-3.4,0.8
			C174.4,400.2,173.3,399.9,172.3,399.3z M177.9,397.7c0.7-0.4,1.3-0.9,1.7-1.7c0.4-0.7,0.6-1.6,0.6-2.7s-0.2-2-0.6-2.7
			c-0.4-0.7-1-1.3-1.6-1.7c-0.7-0.4-1.4-0.5-2.2-0.5c-0.8,0-1.5,0.2-2.2,0.5c-0.7,0.4-1.2,0.9-1.6,1.7c-0.4,0.7-0.6,1.6-0.6,2.7
			c0,1.1,0.2,2,0.6,2.7c0.4,0.7,0.9,1.3,1.6,1.7c0.7,0.4,1.4,0.5,2.2,0.5C176.4,398.2,177.2,398,177.9,397.7z"/>
		<path d="M189.6,387.2c0.9-0.5,1.9-0.8,3-0.8c1.2,0,2.3,0.3,3.2,0.8c1,0.6,1.7,1.4,2.3,2.4c0.5,1,0.8,2.2,0.8,3.6
			c0,1.3-0.3,2.5-0.8,3.6c-0.6,1.1-1.3,1.9-2.3,2.4c-1,0.6-2,0.9-3.2,0.9c-1.1,0-2.2-0.3-3-0.8c-0.9-0.5-1.5-1.1-2-1.9v2.5h-2.2V382
			h2.2v7.1C188,388.3,188.7,387.7,189.6,387.2z M196,390.6c-0.4-0.7-1-1.3-1.6-1.7c-0.7-0.4-1.4-0.6-2.3-0.6c-0.8,0-1.6,0.2-2.2,0.6
			c-0.7,0.4-1.2,1-1.6,1.7c-0.4,0.8-0.6,1.6-0.6,2.6c0,1,0.2,1.9,0.6,2.6c0.4,0.8,1,1.3,1.6,1.7c0.7,0.4,1.4,0.6,2.2,0.6
			c0.8,0,1.6-0.2,2.3-0.6c0.7-0.4,1.2-1,1.6-1.7c0.4-0.8,0.6-1.6,0.6-2.7C196.6,392.3,196.4,391.4,196,390.6z"/>
		<path d="M213.8,394.1h-10.6c0.1,1.3,0.5,2.3,1.3,3.1c0.8,0.7,1.8,1.1,3,1.1c1,0,1.8-0.2,2.4-0.7c0.6-0.4,1.1-1,1.3-1.8h2.4
			c-0.4,1.3-1.1,2.3-2.1,3.1s-2.4,1.2-4,1.2c-1.3,0-2.4-0.3-3.4-0.8c-1-0.6-1.8-1.4-2.3-2.4c-0.6-1-0.8-2.3-0.8-3.6s0.3-2.6,0.8-3.6
			c0.5-1,1.3-1.8,2.3-2.4c1-0.6,2.1-0.8,3.4-0.8c1.3,0,2.4,0.3,3.3,0.8c1,0.5,1.7,1.3,2.2,2.3s0.8,2,0.8,3.3
			C213.9,393.2,213.9,393.7,213.8,394.1z M211,390.2c-0.4-0.6-0.9-1.1-1.5-1.4s-1.3-0.5-2.1-0.5c-1.1,0-2.1,0.4-2.9,1.1
			c-0.8,0.7-1.2,1.7-1.3,3h8.4C211.6,391.5,211.4,390.8,211,390.2z"/>
		<path d="M233.3,396.2h-7.4l-1.4,3.8h-2.3l6.1-16.8h2.5l6.1,16.8h-2.3L233.3,396.2z M232.6,394.4l-3.1-8.5l-3.1,8.5H232.6z"/>
		<path d="M245,388.5h-2.8v11.5H240v-11.5h-1.7v-1.8h1.7v-0.9c0-1.5,0.4-2.6,1.2-3.3c0.8-0.7,2-1,3.7-1v1.8c-1,0-1.7,0.2-2,0.6
			c-0.4,0.4-0.6,1-0.6,1.9v0.9h2.8V388.5z"/>
		<path d="M250.3,388.5v7.8c0,0.6,0.1,1.1,0.4,1.4s0.8,0.4,1.4,0.4h1.6v1.9h-2c-1.2,0-2.2-0.3-2.8-0.8c-0.6-0.6-0.9-1.5-0.9-2.8
			v-7.8h-1.7v-1.8h1.7v-3.3h2.2v3.3h3.5v1.8H250.3z"/>
		<path d="M268.5,394.1h-10.6c0.1,1.3,0.5,2.3,1.3,3.1c0.8,0.7,1.8,1.1,3,1.1c1,0,1.8-0.2,2.4-0.7c0.6-0.4,1.1-1,1.3-1.8h2.4
			c-0.4,1.3-1.1,2.3-2.1,3.1s-2.4,1.2-4,1.2c-1.3,0-2.4-0.3-3.4-0.8c-1-0.6-1.8-1.4-2.3-2.4c-0.6-1-0.8-2.3-0.8-3.6s0.3-2.6,0.8-3.6
			c0.5-1,1.3-1.8,2.3-2.4c1-0.6,2.1-0.8,3.4-0.8c1.3,0,2.4,0.3,3.3,0.8c1,0.5,1.7,1.3,2.2,2.3s0.8,2,0.8,3.3
			C268.6,393.2,268.5,393.7,268.5,394.1z M265.7,390.2c-0.4-0.6-0.9-1.1-1.5-1.4s-1.3-0.5-2.1-0.5c-1.1,0-2.1,0.4-2.9,1.1
			c-0.8,0.7-1.2,1.7-1.3,3h8.4C266.3,391.5,266.1,390.8,265.7,390.2z"/>
		<path d="M275.3,387c0.7-0.4,1.6-0.6,2.6-0.6v2.3h-0.6c-2.5,0-3.7,1.3-3.7,4v7.2h-2.2v-13.3h2.2v2.2
			C274.1,388.1,274.6,387.5,275.3,387z"/>
		<path d="M289.2,384.8v5.7h6.2v1.8h-6.2v5.8h6.9v1.8H287V383h9.1v1.8H289.2z"/>
		<path d="M304.8,388.5h-2.8v11.5h-2.2v-11.5h-1.7v-1.8h1.7v-0.9c0-1.5,0.4-2.6,1.2-3.3c0.8-0.7,2-1,3.7-1v1.8c-1,0-1.7,0.2-2,0.6
			c-0.4,0.4-0.6,1-0.6,1.9v0.9h2.8V388.5z"/>
		<path d="M312.8,388.5H310v11.5h-2.2v-11.5h-1.7v-1.8h1.7v-0.9c0-1.5,0.4-2.6,1.2-3.3c0.8-0.7,2-1,3.7-1v1.8c-1,0-1.7,0.2-2,0.6
			c-0.4,0.4-0.6,1-0.6,1.9v0.9h2.8V388.5z"/>
		<path d="M327.4,394.1h-10.6c0.1,1.3,0.5,2.3,1.3,3.1c0.8,0.7,1.8,1.1,3,1.1c1,0,1.8-0.2,2.4-0.7c0.6-0.4,1.1-1,1.3-1.8h2.4
			c-0.4,1.3-1.1,2.3-2.1,3.1s-2.4,1.2-4,1.2c-1.3,0-2.4-0.3-3.4-0.8c-1-0.6-1.8-1.4-2.3-2.4c-0.6-1-0.8-2.3-0.8-3.6s0.3-2.6,0.8-3.6
			c0.5-1,1.3-1.8,2.3-2.4c1-0.6,2.1-0.8,3.4-0.8c1.3,0,2.4,0.3,3.3,0.8c1,0.5,1.7,1.3,2.2,2.3s0.8,2,0.8,3.3
			C327.5,393.2,327.5,393.7,327.4,394.1z M324.7,390.2c-0.4-0.6-0.9-1.1-1.5-1.4s-1.3-0.5-2.1-0.5c-1.1,0-2.1,0.4-2.9,1.1
			c-0.8,0.7-1.2,1.7-1.3,3h8.4C325.2,391.5,325.1,390.8,324.7,390.2z"/>
		<path d="M330.4,389.7c0.5-1,1.3-1.8,2.3-2.4c1-0.6,2.1-0.8,3.4-0.8c1.6,0,3,0.4,4,1.2c1.1,0.8,1.8,1.9,2.1,3.3h-2.4
			c-0.2-0.8-0.7-1.4-1.3-1.9s-1.5-0.7-2.4-0.7c-1.3,0-2.3,0.4-3.1,1.3c-0.8,0.9-1.2,2.1-1.2,3.7c0,1.6,0.4,2.8,1.2,3.7
			s1.8,1.3,3.1,1.3c1,0,1.8-0.2,2.4-0.7c0.6-0.5,1.1-1.1,1.3-1.9h2.4c-0.4,1.4-1.1,2.4-2.1,3.3c-1.1,0.8-2.4,1.2-4,1.2
			c-1.3,0-2.4-0.3-3.4-0.8c-1-0.6-1.7-1.4-2.3-2.4c-0.5-1-0.8-2.2-0.8-3.6C329.6,391.9,329.9,390.7,330.4,389.7z"/>
		<path d="M347.8,388.5v7.8c0,0.6,0.1,1.1,0.4,1.4s0.8,0.4,1.4,0.4h1.6v1.9h-2c-1.2,0-2.2-0.3-2.8-0.8c-0.6-0.6-0.9-1.5-0.9-2.8
			v-7.8h-1.7v-1.8h1.7v-3.3h2.2v3.3h3.5v1.8H347.8z"/>
		<path d="M355.9,399.6c-0.8-0.3-1.4-0.8-1.9-1.5c-0.5-0.6-0.7-1.3-0.8-2.1h2.3c0.1,0.7,0.4,1.2,0.9,1.6c0.6,0.4,1.3,0.6,2.2,0.6
			c0.8,0,1.5-0.2,2-0.6c0.5-0.4,0.7-0.8,0.7-1.4c0-0.6-0.3-1-0.8-1.3c-0.5-0.3-1.3-0.6-2.4-0.8c-1-0.3-1.8-0.5-2.4-0.8
			c-0.6-0.3-1.2-0.7-1.6-1.2c-0.4-0.5-0.7-1.2-0.7-2.1c0-0.7,0.2-1.3,0.6-1.9c0.4-0.6,1-1,1.7-1.3c0.7-0.3,1.6-0.5,2.5-0.5
			c1.5,0,2.7,0.4,3.6,1.1c0.9,0.7,1.4,1.8,1.5,3.1h-2.2c0-0.7-0.3-1.3-0.8-1.7c-0.5-0.4-1.2-0.6-2-0.6c-0.8,0-1.4,0.2-1.9,0.5
			c-0.5,0.3-0.7,0.8-0.7,1.3c0,0.4,0.1,0.8,0.4,1.1c0.3,0.3,0.6,0.5,1.1,0.7c0.4,0.2,1,0.4,1.8,0.6c1,0.3,1.7,0.5,2.3,0.8
			c0.6,0.3,1.1,0.6,1.5,1.1c0.4,0.5,0.7,1.2,0.7,2c0,0.7-0.2,1.4-0.6,2s-1,1-1.7,1.4c-0.7,0.3-1.6,0.5-2.5,0.5
			C357.7,400.2,356.8,400,355.9,399.6z"/>
	</g>
</g>
</svg>
