<?xml version="1.0" encoding="utf-8"?>
<!-- Generator: Adobe Illustrator 24.1.2, SVG Export Plug-In . SVG Version: 6.00 Build 0)  -->
<svg version="1.1" id="Capa_1" xmlns="http://www.w3.org/2000/svg" xmlns:xlink="http://www.w3.org/1999/xlink" x="0px" y="0px"
	 viewBox="0 0 500 500" style="enable-background:new 0 0 500 500;" xml:space="preserve">
<style type="text/css">
	.st0{fill-rule:evenodd;clip-rule:evenodd;fill:#B493C4;}
	.st1{fill-rule:evenodd;clip-rule:evenodd;fill:#1F183E;}
	.st2{fill:#B493C4;}
	.st3{fill-rule:evenodd;clip-rule:evenodd;fill:#EF7D1A;}
	.st4{fill-rule:evenodd;clip-rule:evenodd;fill:#220C09;}
	.st5{fill:#EF7D1A;}
	.st6{fill-rule:evenodd;clip-rule:evenodd;fill:#31BEF0;}
	.st7{fill-rule:evenodd;clip-rule:evenodd;fill:#041D25;}
	.st8{fill:#3CBFF0;}
	.st9{fill-rule:evenodd;clip-rule:evenodd;fill:#B681B8;}
	.st10{fill-rule:evenodd;clip-rule:evenodd;fill:#23150D;}
	.st11{fill:#B882B8;}
</style>
<g>
	<g>
		<rect x="116.7" y="99.8" class="st3" width="266.6" height="266.6"/>
		<rect x="130.2" y="113.3" class="st4" width="239.6" height="239.6"/>
		<path class="st5" d="M253.8,262.2h-38.3l-9.8,25.7H186l40.1-101.1H243l40.2,101.1h-19.6L253.8,262.2z M234.4,211.1
			c-3.6,10.5-6.8,19.3-9.6,26.5l-3.4,9.1h26.4l-3.4-9.1c-2.8-7.2-6-16-9.6-26.5H234.4z M295.6,214.7h18v73.2h-18V214.7z
			 M295.1,178.4H314v19.3h-18.9V178.4z"/>
	</g>
	<g>
		<path d="M161.9,396.2h-7.4l-1.4,3.8h-2.3l6.1-16.8h2.5l6.1,16.8h-2.3L161.9,396.2z M161.3,394.4l-3.1-8.5l-3.1,8.5H161.3z"/>
		<path d="M168.3,389.7c0.5-1,1.3-1.8,2.3-2.4c1-0.6,2-0.8,3.2-0.8c1,0,2,0.2,2.9,0.7c0.9,0.5,1.6,1.1,2,1.9v-7h2.2v17.9h-2.2v-2.5
			c-0.4,0.8-1.1,1.4-1.9,2c-0.9,0.5-1.9,0.8-3,0.8c-1.2,0-2.3-0.3-3.2-0.9s-1.7-1.4-2.3-2.4c-0.5-1.1-0.8-2.2-0.8-3.6
			C167.4,391.9,167.7,390.7,168.3,389.7z M178.1,390.7c-0.4-0.7-1-1.3-1.6-1.7c-0.7-0.4-1.4-0.6-2.3-0.6c-0.8,0-1.6,0.2-2.3,0.6
			s-1.2,1-1.6,1.7c-0.4,0.7-0.6,1.6-0.6,2.6c0,1,0.2,1.9,0.6,2.7s0.9,1.3,1.6,1.7c0.7,0.4,1.4,0.6,2.3,0.6c0.8,0,1.6-0.2,2.3-0.6
			c0.7-0.4,1.2-1,1.6-1.7c0.4-0.8,0.6-1.6,0.6-2.6S178.5,391.4,178.1,390.7z"/>
		<path d="M187.1,399.3c-1-0.6-1.8-1.4-2.4-2.4c-0.6-1-0.9-2.3-0.9-3.6c0-1.4,0.3-2.6,0.9-3.6c0.6-1,1.4-1.8,2.4-2.4
			c1-0.6,2.2-0.8,3.4-0.8c1.3,0,2.4,0.3,3.4,0.8c1,0.6,1.8,1.4,2.4,2.4c0.6,1,0.9,2.2,0.9,3.6s-0.3,2.6-0.9,3.6s-1.4,1.8-2.5,2.4
			c-1,0.6-2.2,0.8-3.4,0.8C189.2,400.2,188.1,399.9,187.1,399.3z M192.7,397.7c0.7-0.4,1.3-0.9,1.7-1.7c0.4-0.7,0.6-1.6,0.6-2.7
			s-0.2-2-0.6-2.7c-0.4-0.7-1-1.3-1.6-1.7c-0.7-0.4-1.4-0.5-2.2-0.5c-0.8,0-1.5,0.2-2.2,0.5c-0.7,0.4-1.2,0.9-1.6,1.7
			c-0.4,0.7-0.6,1.6-0.6,2.7c0,1.1,0.2,2,0.6,2.7c0.4,0.7,0.9,1.3,1.6,1.7c0.7,0.4,1.4,0.5,2.2,0.5S192,398,192.7,397.7z"/>
		<path d="M204.4,387.2c0.9-0.5,1.9-0.8,3-0.8c1.2,0,2.3,0.3,3.2,0.8c1,0.6,1.7,1.4,2.3,2.4c0.5,1,0.8,2.2,0.8,3.6
			c0,1.3-0.3,2.5-0.8,3.6c-0.6,1.1-1.3,1.9-2.3,2.4s-2,0.9-3.2,0.9c-1.1,0-2.2-0.3-3-0.8s-1.5-1.1-2-1.9v2.5h-2.2V382h2.2v7.1
			C202.8,388.3,203.5,387.7,204.4,387.2z M210.8,390.6c-0.4-0.7-1-1.3-1.6-1.7c-0.7-0.4-1.4-0.6-2.3-0.6c-0.8,0-1.6,0.2-2.2,0.6
			c-0.7,0.4-1.2,1-1.6,1.7s-0.6,1.6-0.6,2.6c0,1,0.2,1.9,0.6,2.6s1,1.3,1.6,1.7c0.7,0.4,1.4,0.6,2.2,0.6c0.8,0,1.6-0.2,2.3-0.6
			c0.7-0.4,1.2-1,1.6-1.7s0.6-1.6,0.6-2.7C211.4,392.3,211.2,391.4,210.8,390.6z"/>
		<path d="M228.6,394.1H218c0.1,1.3,0.5,2.3,1.3,3.1c0.8,0.7,1.8,1.1,3,1.1c1,0,1.8-0.2,2.4-0.7c0.6-0.4,1.1-1,1.3-1.8h2.4
			c-0.4,1.3-1.1,2.3-2.1,3.1s-2.4,1.2-4,1.2c-1.3,0-2.4-0.3-3.4-0.8c-1-0.6-1.8-1.4-2.3-2.4c-0.6-1-0.8-2.3-0.8-3.6s0.3-2.6,0.8-3.6
			c0.5-1,1.3-1.8,2.3-2.4s2.1-0.8,3.4-0.8c1.3,0,2.4,0.3,3.3,0.8c1,0.5,1.7,1.3,2.2,2.3s0.8,2,0.8,3.3
			C228.7,393.2,228.7,393.7,228.6,394.1z M225.9,390.2c-0.4-0.6-0.9-1.1-1.5-1.4s-1.3-0.5-2.1-0.5c-1.1,0-2.1,0.4-2.8,1.1
			c-0.8,0.7-1.2,1.7-1.3,3h8.4C226.4,391.5,226.2,390.8,225.9,390.2z"/>
		<path d="M240.3,383v16.9h-2.2V383H240.3z"/>
		<path d="M246.3,382v17.9H244V382H246.3z"/>
		<path d="M252.2,382v17.9H250V382H252.2z"/>
		<path d="M267.8,386.7v13.3h-2.2v-2c-0.4,0.7-1,1.2-1.8,1.6s-1.6,0.6-2.5,0.6c-1,0-2-0.2-2.8-0.6c-0.8-0.4-1.5-1.1-2-1.9
			c-0.5-0.9-0.7-1.9-0.7-3.1v-7.8h2.2v7.5c0,1.3,0.3,2.3,1,3c0.7,0.7,1.6,1.1,2.7,1.1c1.2,0,2.1-0.4,2.8-1.1c0.7-0.7,1-1.8,1-3.2
			v-7.3H267.8z"/>
		<path d="M273.5,399.6c-0.8-0.3-1.4-0.8-1.9-1.5c-0.5-0.6-0.7-1.3-0.8-2.1h2.3c0.1,0.7,0.4,1.2,0.9,1.6c0.6,0.4,1.3,0.6,2.2,0.6
			c0.8,0,1.5-0.2,2-0.6s0.7-0.8,0.7-1.4c0-0.6-0.3-1-0.8-1.3c-0.5-0.3-1.3-0.6-2.4-0.8c-1-0.3-1.8-0.5-2.4-0.8
			c-0.6-0.3-1.2-0.7-1.6-1.2c-0.4-0.5-0.7-1.2-0.7-2.1c0-0.7,0.2-1.3,0.6-1.9c0.4-0.6,1-1,1.7-1.3c0.7-0.3,1.6-0.5,2.5-0.5
			c1.5,0,2.7,0.4,3.6,1.1c0.9,0.7,1.4,1.8,1.5,3.1h-2.2c0-0.7-0.3-1.3-0.8-1.7c-0.5-0.4-1.2-0.6-2-0.6c-0.8,0-1.4,0.2-1.9,0.5
			s-0.7,0.8-0.7,1.3c0,0.4,0.1,0.8,0.4,1.1c0.3,0.3,0.6,0.5,1.1,0.7c0.4,0.2,1,0.4,1.8,0.6c1,0.3,1.7,0.5,2.3,0.8s1.1,0.6,1.5,1.1
			c0.4,0.5,0.7,1.2,0.7,2c0,0.7-0.2,1.4-0.6,2s-1,1-1.7,1.4c-0.7,0.3-1.6,0.5-2.5,0.5C275.2,400.2,274.3,400,273.5,399.6z"/>
		<path d="M286.9,388.5v7.8c0,0.6,0.1,1.1,0.4,1.4c0.3,0.3,0.8,0.4,1.4,0.4h1.6v1.9h-2c-1.2,0-2.2-0.3-2.8-0.8
			c-0.6-0.6-0.9-1.5-0.9-2.8v-7.8h-1.7v-1.8h1.7v-3.3h2.2v3.3h3.5v1.8H286.9z"/>
		<path d="M296.9,387c0.7-0.4,1.6-0.6,2.6-0.6v2.3h-0.6c-2.5,0-3.7,1.3-3.7,4v7.2H293v-13.3h2.2v2.2
			C295.6,388.1,296.1,387.5,296.9,387z"/>
		<path d="M302,389.7c0.5-1,1.3-1.8,2.3-2.4c1-0.6,2-0.8,3.2-0.8c1.2,0,2.2,0.3,3,0.8c0.9,0.5,1.5,1.1,1.9,1.9v-2.4h2.2v13.3h-2.2
			v-2.5c-0.4,0.8-1.1,1.4-2,1.9c-0.9,0.5-1.9,0.8-3,0.8c-1.2,0-2.2-0.3-3.2-0.9c-1-0.6-1.7-1.4-2.3-2.4c-0.5-1.1-0.8-2.2-0.8-3.6
			C301.2,391.9,301.5,390.7,302,389.7z M311.9,390.7c-0.4-0.7-1-1.3-1.6-1.7c-0.7-0.4-1.4-0.6-2.3-0.6c-0.8,0-1.6,0.2-2.3,0.6
			s-1.2,1-1.6,1.7c-0.4,0.7-0.6,1.6-0.6,2.6c0,1,0.2,1.9,0.6,2.7s0.9,1.3,1.6,1.7c0.7,0.4,1.4,0.6,2.3,0.6c0.8,0,1.6-0.2,2.3-0.6
			c0.7-0.4,1.2-1,1.6-1.7c0.4-0.8,0.6-1.6,0.6-2.6S312.3,391.4,311.9,390.7z"/>
		<path d="M321.1,388.5v7.8c0,0.6,0.1,1.1,0.4,1.4c0.3,0.3,0.8,0.4,1.4,0.4h1.6v1.9h-2c-1.2,0-2.2-0.3-2.8-0.8
			c-0.6-0.6-0.9-1.5-0.9-2.8v-7.8h-1.7v-1.8h1.7v-3.3h2.2v3.3h3.5v1.8H321.1z"/>
		<path d="M329.7,399.3c-1-0.6-1.8-1.4-2.4-2.4c-0.6-1-0.9-2.3-0.9-3.6c0-1.4,0.3-2.6,0.9-3.6c0.6-1,1.4-1.8,2.4-2.4
			s2.2-0.8,3.4-0.8c1.3,0,2.4,0.3,3.4,0.8s1.8,1.4,2.4,2.4c0.6,1,0.9,2.2,0.9,3.6s-0.3,2.6-0.9,3.6c-0.6,1-1.4,1.8-2.5,2.4
			c-1,0.6-2.2,0.8-3.4,0.8C331.8,400.2,330.7,399.9,329.7,399.3z M335.3,397.7c0.7-0.4,1.3-0.9,1.7-1.7c0.4-0.7,0.6-1.6,0.6-2.7
			s-0.2-2-0.6-2.7c-0.4-0.7-1-1.3-1.6-1.7c-0.7-0.4-1.4-0.5-2.2-0.5c-0.8,0-1.5,0.2-2.2,0.5c-0.7,0.4-1.2,0.9-1.6,1.7
			c-0.4,0.7-0.6,1.6-0.6,2.7c0,1.1,0.2,2,0.6,2.7c0.4,0.7,0.9,1.3,1.6,1.7c0.7,0.4,1.4,0.5,2.2,0.5
			C333.9,398.2,334.6,398,335.3,397.7z"/>
		<path d="M346.7,387c0.7-0.4,1.6-0.6,2.6-0.6v2.3h-0.6c-2.5,0-3.7,1.3-3.7,4v7.2h-2.2v-13.3h2.2v2.2
			C345.4,388.1,345.9,387.5,346.7,387z"/>
	</g>
</g>
</svg>
