<?xml version="1.0" encoding="utf-8"?>
<!-- Generator: Adobe Illustrator 24.1.2, SVG Export Plug-In . SVG Version: 6.00 Build 0)  -->
<svg version="1.1" id="Capa_1" xmlns="http://www.w3.org/2000/svg" xmlns:xlink="http://www.w3.org/1999/xlink" x="0px" y="0px"
	 viewBox="0 0 500 500" style="enable-background:new 0 0 500 500;" xml:space="preserve">
<style type="text/css">
	.st0{fill-rule:evenodd;clip-rule:evenodd;fill:#B493C4;}
	.st1{fill-rule:evenodd;clip-rule:evenodd;fill:#1F183E;}
	.st2{fill:#B493C4;}
	.st3{fill-rule:evenodd;clip-rule:evenodd;fill:#EF7D1A;}
	.st4{fill-rule:evenodd;clip-rule:evenodd;fill:#220C09;}
	.st5{fill:#EF7D1A;}
	.st6{fill-rule:evenodd;clip-rule:evenodd;fill:#31BEF0;}
	.st7{fill-rule:evenodd;clip-rule:evenodd;fill:#041D25;}
	.st8{fill:#3CBFF0;}
	.st9{fill-rule:evenodd;clip-rule:evenodd;fill:#B681B8;}
	.st10{fill-rule:evenodd;clip-rule:evenodd;fill:#23150D;}
	.st11{fill:#B882B8;}
</style>
<g>
	<g>
		<rect x="116.7" y="95.6" class="st6" width="266.6" height="266.6"/>
		<rect x="130.2" y="109.1" class="st7" width="239.6" height="239.6"/>
		<path class="st8" d="M207.7,239.3c-1.6,0-3.3,0-4.9-0.1c-1.6-0.1-3.1-0.1-4.5-0.3v39.5h-18.6v-101h29.2c4.9,0,9.2,0.2,12.8,0.6
			c3.7,0.4,6.9,1,9.8,1.9c6.9,2.1,12.2,5.5,16,10.1c3.7,4.6,5.6,10.5,5.6,17.6c0,4.9-1,9.3-3,13.1c-2,3.9-5,7.2-8.9,10
			c-3.9,2.7-8.6,4.8-14.2,6.3C221.3,238.6,214.9,239.3,207.7,239.3L207.7,239.3z M198.2,223.4c1.1,0.1,2.4,0.3,4,0.4
			c1.6,0.1,3.4,0.1,5.1,0.1c4.9,0,9.1-0.4,12.5-1.2c3.4-0.8,6.1-1.9,8.1-3.4c2.1-1.4,3.6-3.2,4.4-5.2c1-2,1.4-4.3,1.4-6.7
			c0-3-0.7-5.5-2-7.7c-1.4-2.2-3.7-3.8-7.1-5c-1.8-0.6-3.9-1.1-6.5-1.3c-2.6-0.3-5.8-0.4-9.5-0.4h-10.4V223.4z M302.7,257.2
			c0-1.5-0.4-2.9-1.3-3.9c-0.9-1-2-1.8-3.5-2.5c-1.5-0.7-3.2-1.3-5-1.8c-1.9-0.4-3.9-1-6-1.5c-2.6-0.7-5.1-1.5-7.5-2.5
			c-2.4-1-4.6-2.2-6.4-3.7c-1.8-1.5-3.3-3.4-4.4-5.7c-1.1-2.3-1.6-5.1-1.6-8.4c0-4.1,0.8-7.7,2.2-10.7c1.5-3,3.5-5.5,6-7.4
			c2.5-2,5.4-3.4,8.7-4.4c3.3-1,6.8-1.5,10.5-1.5c4.5,0,8.7,0.4,12.6,1.1c3.9,0.8,7.5,1.7,10.7,2.9v14.5c-1.6-0.6-3.4-1.1-5.3-1.5
			c-1.8-0.4-3.7-0.9-5.6-1.2c-1.9-0.3-3.7-0.6-5.6-0.8c-1.8-0.3-3.6-0.3-5.3-0.3c-2.2,0-3.9,0.2-5.4,0.6c-1.5,0.4-2.6,1-3.6,1.6
			c-0.9,0.6-1.5,1.4-2,2.3c-0.4,0.9-0.6,1.8-0.6,2.8c0,1.6,0.4,3,1.3,4.1c0.9,1.1,2.2,1.9,3.7,2.5c1.6,0.7,3.2,1.2,4.9,1.6
			c1.7,0.4,3.4,0.8,5,1.3c2.5,0.6,5,1.3,7.5,2.2c2.5,0.9,4.8,2,6.8,3.6c2,1.5,3.7,3.5,4.9,6c1.3,2.4,1.9,5.5,1.9,9.3
			c0,4.1-0.8,7.7-2.3,10.8c-1.5,3.1-3.7,5.6-6.5,7.7c-2.9,2-6.2,3.6-10.1,4.5c-3.9,1-8.2,1.5-12.9,1.5c-4.6,0-8.8-0.4-12.5-1.1
			c-3.7-0.8-6.8-1.6-9.2-2.8v-14.4c3.9,1.5,7.5,2.4,10.9,2.9c3.3,0.5,6.4,0.8,9.3,0.8c2.2,0,4.3-0.1,6.2-0.4
			c1.9-0.4,3.6-0.8,4.9-1.6c1.4-0.7,2.5-1.6,3.3-2.7C302.3,260,302.7,258.7,302.7,257.2L302.7,257.2z"/>
	</g>
	<g>
		<path d="M154,394.4h-7.4l-1.4,3.8h-2.3l6.1-16.8h2.5l6.1,16.8h-2.3L154,394.4z M153.4,392.6l-3.1-8.5l-3.1,8.5H153.4z"/>
		<path d="M160.4,387.9c0.5-1,1.3-1.8,2.3-2.4c1-0.6,2-0.8,3.2-0.8c1,0,2,0.2,2.9,0.7c0.9,0.5,1.6,1.1,2,1.9v-7h2.2v17.9h-2.2v-2.5
			c-0.4,0.8-1.1,1.4-1.9,2c-0.9,0.5-1.9,0.8-3,0.8c-1.2,0-2.3-0.3-3.2-0.9s-1.7-1.4-2.3-2.4c-0.5-1.1-0.8-2.2-0.8-3.6
			C159.5,390.1,159.8,388.9,160.4,387.9z M170.2,388.8c-0.4-0.7-1-1.3-1.6-1.7c-0.7-0.4-1.4-0.6-2.3-0.6s-1.6,0.2-2.3,0.6
			c-0.7,0.4-1.2,1-1.6,1.7c-0.4,0.7-0.6,1.6-0.6,2.6c0,1,0.2,1.9,0.6,2.7s0.9,1.3,1.6,1.7c0.7,0.4,1.4,0.6,2.3,0.6s1.6-0.2,2.3-0.6
			c0.7-0.4,1.2-1,1.6-1.7c0.4-0.8,0.6-1.6,0.6-2.6S170.6,389.6,170.2,388.8z"/>
		<path d="M179.2,397.5c-1-0.6-1.8-1.4-2.4-2.4s-0.9-2.3-0.9-3.6c0-1.4,0.3-2.6,0.9-3.6s1.4-1.8,2.4-2.4c1-0.6,2.2-0.8,3.4-0.8
			s2.4,0.3,3.4,0.8c1,0.6,1.8,1.4,2.4,2.4c0.6,1,0.9,2.2,0.9,3.6s-0.3,2.6-0.9,3.6c-0.6,1-1.4,1.8-2.5,2.4c-1,0.6-2.2,0.8-3.4,0.8
			C181.3,398.3,180.2,398.1,179.2,397.5z M184.8,395.9c0.7-0.4,1.3-0.9,1.7-1.7c0.4-0.7,0.6-1.6,0.6-2.7s-0.2-2-0.6-2.7
			c-0.4-0.7-1-1.3-1.6-1.7c-0.7-0.4-1.4-0.5-2.2-0.5c-0.8,0-1.5,0.2-2.2,0.5c-0.7,0.4-1.2,0.9-1.6,1.7c-0.4,0.7-0.6,1.6-0.6,2.7
			c0,1.1,0.2,2,0.6,2.7c0.4,0.7,0.9,1.3,1.6,1.7c0.7,0.4,1.4,0.5,2.2,0.5C183.3,396.4,184.1,396.2,184.8,395.9z"/>
		<path d="M196.5,385.4c0.9-0.5,1.9-0.8,3-0.8c1.2,0,2.3,0.3,3.2,0.8c1,0.6,1.7,1.4,2.3,2.4c0.5,1,0.8,2.2,0.8,3.6
			c0,1.3-0.3,2.5-0.8,3.6c-0.6,1.1-1.3,1.9-2.3,2.4c-1,0.6-2,0.9-3.2,0.9c-1.1,0-2.2-0.3-3-0.8c-0.9-0.5-1.5-1.1-2-1.9v2.5h-2.2
			v-17.9h2.2v7.1C194.9,386.5,195.6,385.9,196.5,385.4z M202.9,388.8c-0.4-0.7-1-1.3-1.6-1.7c-0.7-0.4-1.4-0.6-2.3-0.6
			c-0.8,0-1.6,0.2-2.2,0.6c-0.7,0.4-1.2,1-1.6,1.7c-0.4,0.8-0.6,1.6-0.6,2.6c0,1,0.2,1.9,0.6,2.6c0.4,0.8,1,1.3,1.6,1.7
			c0.7,0.4,1.4,0.6,2.2,0.6c0.8,0,1.6-0.2,2.3-0.6c0.7-0.4,1.2-1,1.6-1.7c0.4-0.8,0.6-1.6,0.6-2.7
			C203.5,390.4,203.3,389.6,202.9,388.8z"/>
		<path d="M220.7,392.3h-10.6c0.1,1.3,0.5,2.3,1.3,3.1c0.8,0.7,1.8,1.1,3,1.1c1,0,1.8-0.2,2.4-0.7c0.6-0.4,1.1-1,1.3-1.8h2.4
			c-0.4,1.3-1.1,2.3-2.1,3.1s-2.4,1.2-4,1.2c-1.3,0-2.4-0.3-3.4-0.8c-1-0.6-1.8-1.4-2.3-2.4c-0.6-1-0.8-2.3-0.8-3.6s0.3-2.6,0.8-3.6
			c0.5-1,1.3-1.8,2.3-2.4c1-0.6,2.1-0.8,3.4-0.8c1.3,0,2.4,0.3,3.3,0.8c1,0.5,1.7,1.3,2.2,2.3s0.8,2,0.8,3.3
			C220.8,391.4,220.8,391.8,220.7,392.3z M218,388.3c-0.4-0.6-0.9-1.1-1.5-1.4s-1.3-0.5-2.1-0.5c-1.1,0-2.1,0.4-2.9,1.1
			c-0.8,0.7-1.2,1.7-1.3,3h8.4C218.5,389.7,218.3,389,218,388.3z"/>
		<path d="M240,389.7c-1,0.9-2.4,1.4-4.4,1.4h-3.3v7.1h-2.2v-16.9h5.5c1.9,0,3.4,0.5,4.4,1.4c1,0.9,1.5,2.1,1.5,3.6
			C241.5,387.6,241,388.7,240,389.7z M238.4,388.5c0.6-0.5,0.9-1.3,0.9-2.3c0-2.1-1.2-3.1-3.6-3.1h-3.3v6.2h3.3
			C236.9,389.3,237.8,389,238.4,388.5z"/>
		<path d="M253.5,385.2c0.8,0.4,1.4,1.1,1.9,1.9s0.7,1.9,0.7,3.1v7.8H254v-7.5c0-1.3-0.3-2.3-1-3c-0.7-0.7-1.6-1.1-2.7-1.1
			c-1.2,0-2.1,0.4-2.8,1.1c-0.7,0.7-1,1.8-1,3.2v7.3h-2.2v-17.9h2.2v6.5c0.4-0.7,1-1.2,1.8-1.6c0.8-0.4,1.6-0.6,2.6-0.6
			C251.8,384.6,252.7,384.8,253.5,385.2z"/>
		<path d="M262.2,397.5c-1-0.6-1.8-1.4-2.4-2.4s-0.9-2.3-0.9-3.6c0-1.4,0.3-2.6,0.9-3.6s1.4-1.8,2.4-2.4c1-0.6,2.2-0.8,3.4-0.8
			s2.4,0.3,3.4,0.8c1,0.6,1.8,1.4,2.4,2.4c0.6,1,0.9,2.2,0.9,3.6s-0.3,2.6-0.9,3.6c-0.6,1-1.4,1.8-2.5,2.4c-1,0.6-2.2,0.8-3.4,0.8
			C264.3,398.3,263.2,398.1,262.2,397.5z M267.8,395.9c0.7-0.4,1.3-0.9,1.7-1.7c0.4-0.7,0.6-1.6,0.6-2.7s-0.2-2-0.6-2.7
			c-0.4-0.7-1-1.3-1.6-1.7c-0.7-0.4-1.4-0.5-2.2-0.5c-0.8,0-1.5,0.2-2.2,0.5c-0.7,0.4-1.2,0.9-1.6,1.7c-0.4,0.7-0.6,1.6-0.6,2.7
			c0,1.1,0.2,2,0.6,2.7c0.4,0.7,0.9,1.3,1.6,1.7c0.7,0.4,1.4,0.5,2.2,0.5C266.3,396.4,267.1,396.2,267.8,395.9z"/>
		<path d="M277.2,397.8c-0.8-0.3-1.4-0.8-1.9-1.5c-0.5-0.6-0.7-1.3-0.8-2.1h2.3c0.1,0.7,0.4,1.2,0.9,1.6c0.6,0.4,1.3,0.6,2.2,0.6
			c0.8,0,1.5-0.2,2-0.6c0.5-0.4,0.7-0.8,0.7-1.4c0-0.6-0.3-1-0.8-1.3c-0.5-0.3-1.3-0.6-2.4-0.8c-1-0.3-1.8-0.5-2.4-0.8
			c-0.6-0.3-1.2-0.7-1.6-1.2c-0.4-0.5-0.7-1.2-0.7-2.1c0-0.7,0.2-1.3,0.6-1.9c0.4-0.6,1-1,1.7-1.3c0.7-0.3,1.6-0.5,2.5-0.5
			c1.5,0,2.7,0.4,3.6,1.1c0.9,0.7,1.4,1.8,1.5,3.1h-2.2c0-0.7-0.3-1.3-0.8-1.7c-0.5-0.4-1.2-0.6-2-0.6c-0.8,0-1.4,0.2-1.9,0.5
			c-0.5,0.3-0.7,0.8-0.7,1.3c0,0.4,0.1,0.8,0.4,1.1c0.3,0.3,0.6,0.5,1.1,0.7c0.4,0.2,1,0.4,1.8,0.6c1,0.3,1.7,0.5,2.3,0.8
			c0.6,0.3,1.1,0.6,1.5,1.1c0.4,0.5,0.7,1.2,0.7,2c0,0.7-0.2,1.4-0.6,2s-1,1-1.7,1.4c-0.7,0.3-1.6,0.5-2.5,0.5
			C279,398.3,278,398.2,277.2,397.8z"/>
		<path d="M290.3,397.5c-1-0.6-1.8-1.4-2.4-2.4s-0.9-2.3-0.9-3.6c0-1.4,0.3-2.6,0.9-3.6s1.4-1.8,2.4-2.4c1-0.6,2.2-0.8,3.4-0.8
			s2.4,0.3,3.4,0.8c1,0.6,1.8,1.4,2.4,2.4c0.6,1,0.9,2.2,0.9,3.6s-0.3,2.6-0.9,3.6c-0.6,1-1.4,1.8-2.5,2.4c-1,0.6-2.2,0.8-3.4,0.8
			C292.5,398.3,291.4,398.1,290.3,397.5z M296,395.9c0.7-0.4,1.3-0.9,1.7-1.7c0.4-0.7,0.6-1.6,0.6-2.7s-0.2-2-0.6-2.7
			c-0.4-0.7-1-1.3-1.6-1.7c-0.7-0.4-1.4-0.5-2.2-0.5c-0.8,0-1.5,0.2-2.2,0.5c-0.7,0.4-1.2,0.9-1.6,1.7c-0.4,0.7-0.6,1.6-0.6,2.7
			c0,1.1,0.2,2,0.6,2.7c0.4,0.7,0.9,1.3,1.6,1.7c0.7,0.4,1.4,0.5,2.2,0.5C294.5,396.4,295.3,396.2,296,395.9z"/>
		<path d="M306.1,386.7v7.8c0,0.6,0.1,1.1,0.4,1.4s0.8,0.4,1.4,0.4h1.6v1.9h-2c-1.2,0-2.2-0.3-2.8-0.8c-0.6-0.6-0.9-1.5-0.9-2.8
			v-7.8h-1.7v-1.8h1.7v-3.3h2.2v3.3h3.5v1.8H306.1z"/>
		<path d="M321.6,385.2c0.8,0.4,1.4,1.1,1.9,1.9s0.7,1.9,0.7,3.1v7.8H322v-7.5c0-1.3-0.3-2.3-1-3c-0.7-0.7-1.6-1.1-2.7-1.1
			c-1.2,0-2.1,0.4-2.8,1.1c-0.7,0.7-1,1.8-1,3.2v7.3h-2.2v-17.9h2.2v6.5c0.4-0.7,1-1.2,1.8-1.6c0.8-0.4,1.6-0.6,2.6-0.6
			C319.9,384.6,320.8,384.8,321.6,385.2z"/>
		<path d="M330.2,397.5c-1-0.6-1.8-1.4-2.4-2.4s-0.9-2.3-0.9-3.6c0-1.4,0.3-2.6,0.9-3.6s1.4-1.8,2.4-2.4c1-0.6,2.2-0.8,3.4-0.8
			s2.4,0.3,3.4,0.8c1,0.6,1.8,1.4,2.4,2.4c0.6,1,0.9,2.2,0.9,3.6s-0.3,2.6-0.9,3.6c-0.6,1-1.4,1.8-2.5,2.4c-1,0.6-2.2,0.8-3.4,0.8
			C332.4,398.3,331.2,398.1,330.2,397.5z M335.8,395.9c0.7-0.4,1.3-0.9,1.7-1.7c0.4-0.7,0.6-1.6,0.6-2.7s-0.2-2-0.6-2.7
			c-0.4-0.7-1-1.3-1.6-1.7c-0.7-0.4-1.4-0.5-2.2-0.5c-0.8,0-1.5,0.2-2.2,0.5c-0.7,0.4-1.2,0.9-1.6,1.7c-0.4,0.7-0.6,1.6-0.6,2.7
			c0,1.1,0.2,2,0.6,2.7c0.4,0.7,0.9,1.3,1.6,1.7c0.7,0.4,1.4,0.5,2.2,0.5C334.4,396.4,335.1,396.2,335.8,395.9z"/>
		<path d="M347.5,385.4c0.9-0.5,1.9-0.8,3-0.8c1.2,0,2.3,0.3,3.2,0.8c1,0.6,1.7,1.4,2.3,2.4c0.5,1,0.8,2.2,0.8,3.6
			c0,1.3-0.3,2.5-0.8,3.6c-0.6,1.1-1.3,1.9-2.3,2.4c-1,0.6-2,0.9-3.2,0.9c-1.1,0-2.1-0.3-3-0.8c-0.9-0.5-1.5-1.1-2-1.9v8.8h-2.2
			v-19.6h2.2v2.5C346,386.5,346.6,385.9,347.5,385.4z M354,388.8c-0.4-0.7-1-1.3-1.6-1.7c-0.7-0.4-1.4-0.6-2.3-0.6
			c-0.8,0-1.6,0.2-2.2,0.6c-0.7,0.4-1.2,1-1.6,1.7c-0.4,0.8-0.6,1.6-0.6,2.6c0,1,0.2,1.9,0.6,2.6c0.4,0.8,1,1.3,1.6,1.7
			c0.7,0.4,1.4,0.6,2.2,0.6c0.8,0,1.6-0.2,2.3-0.6c0.7-0.4,1.2-1,1.6-1.7c0.4-0.8,0.6-1.6,0.6-2.7
			C354.6,390.4,354.4,389.6,354,388.8z"/>
	</g>
</g>
</svg>
