<?xml version="1.0" encoding="utf-8"?>
<!-- Generator: Adobe Illustrator 24.1.2, SVG Export Plug-In . SVG Version: 6.00 Build 0)  -->
<svg version="1.1" id="Capa_1" xmlns="http://www.w3.org/2000/svg" xmlns:xlink="http://www.w3.org/1999/xlink" x="0px" y="0px"
	 viewBox="0 0 500 500" style="enable-background:new 0 0 500 500;" xml:space="preserve">
<style type="text/css">
	.st0{fill-rule:evenodd;clip-rule:evenodd;fill:#B493C4;}
	.st1{fill-rule:evenodd;clip-rule:evenodd;fill:#1F183E;}
	.st2{fill:#B493C4;}
	.st3{fill-rule:evenodd;clip-rule:evenodd;fill:#EF7D1A;}
	.st4{fill-rule:evenodd;clip-rule:evenodd;fill:#220C09;}
	.st5{fill:#EF7D1A;}
	.st6{fill-rule:evenodd;clip-rule:evenodd;fill:#31BEF0;}
	.st7{fill-rule:evenodd;clip-rule:evenodd;fill:#041D25;}
	.st8{fill:#3CBFF0;}
	.st9{fill-rule:evenodd;clip-rule:evenodd;fill:#B681B8;}
	.st10{fill-rule:evenodd;clip-rule:evenodd;fill:#23150D;}
	.st11{fill:#B882B8;}
</style>
<g>
	<g>
		<rect x="116.7" y="98.6" class="st9" width="266.6" height="266.6"/>
		<rect x="130.2" y="112.1" class="st10" width="239.6" height="239.6"/>
		<path class="st11" d="M207.7,242.4c-1.6,0-3.3,0-4.9-0.1c-1.6-0.1-3.1-0.1-4.5-0.3v39.5h-18.6v-101h29.2c4.9,0,9.2,0.2,12.8,0.6
			c3.7,0.4,6.9,1,9.8,1.9c6.9,2.1,12.2,5.5,16,10.1c3.7,4.6,5.6,10.5,5.6,17.6c0,4.9-1,9.3-3,13.1c-2,3.9-5,7.2-8.9,10
			c-3.9,2.7-8.6,4.8-14.2,6.3C221.3,241.7,214.9,242.4,207.7,242.4L207.7,242.4z M198.2,226.4c1,0.1,2.4,0.3,4,0.4
			c1.6,0.1,3.4,0.1,5.1,0.1c4.9,0,9.1-0.4,12.5-1.2c3.4-0.8,6.1-1.9,8.1-3.4c2.1-1.4,3.6-3.2,4.4-5.2c1-2,1.4-4.3,1.4-6.7
			c0-3-0.7-5.5-2-7.7c-1.4-2.2-3.7-3.8-7.1-5c-1.8-0.6-3.9-1.1-6.5-1.3c-2.6-0.3-5.8-0.4-9.5-0.4h-10.4V226.4z M313.8,222.6h-1.5
			c-5.5,0-10.3,0.8-14.5,2.5c-4.2,1.6-7.4,4.1-9.6,7.4v49h-18v-73.1h14.8l1.6,10.1h0.3c2.1-3.7,5-6.7,8.7-8.8
			c3.7-2.2,8.2-3.2,13.4-3.2c1.8,0,3.4,0.1,4.6,0.3V222.6z"/>
	</g>
	<g>
		<path d="M142.1,397.4h-7.4l-1.4,3.8h-2.3l6.1-16.8h2.5l6.1,16.8h-2.3L142.1,397.4z M141.5,395.6l-3.1-8.5l-3.1,8.5H141.5z"/>
		<path d="M148.5,390.9c0.5-1,1.3-1.8,2.3-2.4c1-0.6,2-0.8,3.2-0.8c1,0,2,0.2,2.9,0.7c0.9,0.5,1.6,1.1,2,1.9v-7h2.2v17.9h-2.2v-2.5
			c-0.4,0.8-1.1,1.4-1.9,2c-0.9,0.5-1.9,0.8-3,0.8c-1.2,0-2.3-0.3-3.2-0.9c-1-0.6-1.7-1.4-2.3-2.4c-0.5-1.1-0.8-2.2-0.8-3.6
			C147.7,393.1,147.9,391.9,148.5,390.9z M158.3,391.9c-0.4-0.7-1-1.3-1.6-1.7c-0.7-0.4-1.4-0.6-2.3-0.6c-0.8,0-1.6,0.2-2.3,0.6
			s-1.2,1-1.6,1.7c-0.4,0.7-0.6,1.6-0.6,2.6c0,1,0.2,1.9,0.6,2.7s0.9,1.3,1.6,1.7c0.7,0.4,1.4,0.6,2.3,0.6c0.8,0,1.6-0.2,2.3-0.6
			c0.7-0.4,1.2-1,1.6-1.7c0.4-0.8,0.6-1.6,0.6-2.6S158.7,392.6,158.3,391.9z"/>
		<path d="M167.3,400.5c-1-0.6-1.8-1.4-2.4-2.4s-0.9-2.3-0.9-3.6c0-1.4,0.3-2.6,0.9-3.6s1.4-1.8,2.4-2.4c1-0.6,2.2-0.8,3.4-0.8
			c1.3,0,2.4,0.3,3.4,0.8c1,0.6,1.8,1.4,2.4,2.4c0.6,1,0.9,2.2,0.9,3.6s-0.3,2.6-0.9,3.6c-0.6,1-1.4,1.8-2.5,2.4
			c-1,0.6-2.2,0.8-3.4,0.8C169.4,401.4,168.3,401.1,167.3,400.5z M172.9,398.9c0.7-0.4,1.3-0.9,1.7-1.7c0.4-0.7,0.6-1.6,0.6-2.7
			s-0.2-2-0.6-2.7c-0.4-0.7-1-1.3-1.7-1.7c-0.7-0.4-1.4-0.5-2.2-0.5c-0.8,0-1.5,0.2-2.2,0.5c-0.7,0.4-1.2,0.9-1.6,1.7
			c-0.4,0.7-0.6,1.6-0.6,2.7c0,1.1,0.2,2,0.6,2.7c0.4,0.7,0.9,1.3,1.6,1.7c0.7,0.4,1.4,0.5,2.2,0.5
			C171.5,399.5,172.2,399.3,172.9,398.9z"/>
		<path d="M184.6,388.4c0.9-0.5,1.9-0.8,3-0.8c1.2,0,2.3,0.3,3.2,0.8c1,0.6,1.7,1.4,2.3,2.4c0.5,1,0.8,2.2,0.8,3.6
			c0,1.3-0.3,2.5-0.8,3.6s-1.3,1.9-2.3,2.4c-1,0.6-2,0.9-3.2,0.9c-1.1,0-2.2-0.3-3-0.8c-0.9-0.5-1.5-1.1-2-1.9v2.5h-2.2v-17.9h2.2
			v7.1C183.1,389.6,183.7,388.9,184.6,388.4z M191,391.9c-0.4-0.7-1-1.3-1.6-1.7c-0.7-0.4-1.4-0.6-2.3-0.6c-0.8,0-1.6,0.2-2.2,0.6
			c-0.7,0.4-1.2,1-1.6,1.7c-0.4,0.8-0.6,1.6-0.6,2.6c0,1,0.2,1.9,0.6,2.6c0.4,0.8,1,1.3,1.6,1.7c0.7,0.4,1.4,0.6,2.2,0.6
			c0.8,0,1.6-0.2,2.3-0.6c0.7-0.4,1.2-1,1.6-1.7s0.6-1.6,0.6-2.7C191.6,393.5,191.4,392.6,191,391.9z"/>
		<path d="M208.9,395.4h-10.6c0.1,1.3,0.5,2.3,1.3,3.1c0.8,0.7,1.8,1.1,3,1.1c1,0,1.8-0.2,2.4-0.7c0.6-0.4,1.1-1,1.3-1.8h2.4
			c-0.4,1.3-1.1,2.3-2.1,3.1c-1.1,0.8-2.4,1.2-4,1.2c-1.3,0-2.4-0.3-3.4-0.8c-1-0.6-1.8-1.4-2.3-2.4c-0.6-1-0.8-2.3-0.8-3.6
			s0.3-2.6,0.8-3.6c0.5-1,1.3-1.8,2.3-2.4c1-0.6,2.1-0.8,3.4-0.8c1.3,0,2.4,0.3,3.3,0.8c1,0.5,1.7,1.3,2.2,2.3s0.8,2,0.8,3.3
			C208.9,394.4,208.9,394.9,208.9,395.4z M206.1,391.4c-0.4-0.6-0.9-1.1-1.5-1.4s-1.3-0.5-2.1-0.5c-1.1,0-2.1,0.4-2.8,1.1
			c-0.8,0.7-1.2,1.7-1.3,3h8.4C206.6,392.7,206.5,392,206.1,391.4z"/>
		<path d="M228.2,392.7c-1,0.9-2.4,1.4-4.4,1.4h-3.3v7.1h-2.2v-16.9h5.5c1.9,0,3.4,0.5,4.4,1.4c1,0.9,1.5,2.1,1.5,3.6
			C229.6,390.6,229.1,391.8,228.2,392.7z M226.5,391.5c0.6-0.5,0.9-1.3,0.9-2.3c0-2.1-1.2-3.1-3.6-3.1h-3.3v6.2h3.3
			C225,392.3,225.9,392,226.5,391.5z"/>
		<path d="M236.2,388.3c0.7-0.4,1.6-0.6,2.6-0.6v2.3h-0.6c-2.5,0-3.7,1.3-3.7,4v7.2h-2.2v-13.3h2.2v2.2
			C235,389.3,235.5,388.7,236.2,388.3z"/>
		<path d="M253.5,395.4h-10.6c0.1,1.3,0.5,2.3,1.3,3.1c0.8,0.7,1.8,1.1,3,1.1c1,0,1.8-0.2,2.4-0.7c0.6-0.4,1.1-1,1.3-1.8h2.4
			c-0.4,1.3-1.1,2.3-2.1,3.1s-2.4,1.2-4,1.2c-1.3,0-2.4-0.3-3.4-0.8c-1-0.6-1.8-1.4-2.3-2.4s-0.8-2.3-0.8-3.6s0.3-2.6,0.8-3.6
			c0.5-1,1.3-1.8,2.3-2.4c1-0.6,2.1-0.8,3.4-0.8c1.3,0,2.4,0.3,3.3,0.8c1,0.5,1.7,1.3,2.2,2.3s0.8,2,0.8,3.3
			C253.5,394.4,253.5,394.9,253.5,395.4z M250.7,391.4c-0.4-0.6-0.9-1.1-1.5-1.4s-1.3-0.5-2.1-0.5c-1.1,0-2.1,0.4-2.8,1.1
			c-0.8,0.7-1.2,1.7-1.3,3h8.4C251.2,392.7,251.1,392,250.7,391.4z"/>
		<path d="M275.2,388.3c0.8,0.4,1.4,1.1,1.9,1.9c0.5,0.9,0.7,1.9,0.7,3.1v7.8h-2.2v-7.5c0-1.3-0.3-2.3-1-3c-0.7-0.7-1.5-1.1-2.7-1.1
			c-1.1,0-2.1,0.4-2.7,1.1c-0.7,0.7-1,1.8-1,3.2v7.3H266v-7.5c0-1.3-0.3-2.3-1-3c-0.7-0.7-1.5-1.1-2.7-1.1c-1.1,0-2.1,0.4-2.7,1.1
			c-0.7,0.7-1,1.8-1,3.2v7.3h-2.2v-13.3h2.2v1.9c0.4-0.7,1-1.2,1.8-1.6c0.7-0.4,1.5-0.6,2.4-0.6c1.1,0,2.1,0.3,3,0.8
			c0.9,0.5,1.5,1.2,1.9,2.2c0.4-0.9,1-1.7,1.8-2.2c0.9-0.5,1.8-0.8,2.9-0.8C273.5,387.6,274.4,387.9,275.2,388.3z"/>
		<path d="M281.5,385.3c-0.3-0.3-0.4-0.6-0.4-1.1c0-0.4,0.1-0.8,0.4-1.1s0.6-0.4,1.1-0.4c0.4,0,0.7,0.1,1,0.4
			c0.3,0.3,0.4,0.6,0.4,1.1c0,0.4-0.1,0.8-0.4,1.1c-0.3,0.3-0.6,0.4-1,0.4C282.1,385.7,281.8,385.6,281.5,385.3z M283.6,387.9v13.3
			h-2.2v-13.3H283.6z"/>
		<path d="M299.4,395.4h-10.6c0.1,1.3,0.5,2.3,1.3,3.1c0.8,0.7,1.8,1.1,3,1.1c1,0,1.8-0.2,2.4-0.7c0.6-0.4,1.1-1,1.3-1.8h2.4
			c-0.4,1.3-1.1,2.3-2.1,3.1s-2.4,1.2-4,1.2c-1.3,0-2.4-0.3-3.4-0.8c-1-0.6-1.8-1.4-2.3-2.4s-0.8-2.3-0.8-3.6s0.3-2.6,0.8-3.6
			c0.5-1,1.3-1.8,2.3-2.4c1-0.6,2.1-0.8,3.4-0.8c1.3,0,2.4,0.3,3.3,0.8c1,0.5,1.7,1.3,2.2,2.3s0.8,2,0.8,3.3
			C299.5,394.4,299.5,394.9,299.4,395.4z M296.7,391.4c-0.4-0.6-0.9-1.1-1.5-1.4s-1.3-0.5-2.1-0.5c-1.1,0-2.1,0.4-2.8,1.1
			c-0.8,0.7-1.2,1.7-1.3,3h8.4C297.2,392.7,297,392,296.7,391.4z"/>
		<path d="M306.3,388.3c0.7-0.4,1.6-0.6,2.6-0.6v2.3h-0.6c-2.5,0-3.7,1.3-3.7,4v7.2h-2.2v-13.3h2.2v2.2
			C305,389.3,305.6,388.7,306.3,388.3z"/>
		<path d="M323.5,395.4h-10.6c0.1,1.3,0.5,2.3,1.3,3.1c0.8,0.7,1.8,1.1,3,1.1c1,0,1.8-0.2,2.4-0.7c0.6-0.4,1.1-1,1.3-1.8h2.4
			c-0.4,1.3-1.1,2.3-2.1,3.1c-1.1,0.8-2.4,1.2-4,1.2c-1.3,0-2.4-0.3-3.4-0.8c-1-0.6-1.8-1.4-2.3-2.4c-0.6-1-0.8-2.3-0.8-3.6
			s0.3-2.6,0.8-3.6c0.5-1,1.3-1.8,2.3-2.4s2.1-0.8,3.4-0.8c1.3,0,2.4,0.3,3.3,0.8c1,0.5,1.7,1.3,2.2,2.3s0.8,2,0.8,3.3
			C323.6,394.4,323.6,394.9,323.5,395.4z M320.8,391.4c-0.4-0.6-0.9-1.1-1.5-1.4s-1.3-0.5-2.1-0.5c-1.1,0-2.1,0.4-2.9,1.1
			c-0.8,0.7-1.2,1.7-1.3,3h8.4C321.3,392.7,321.1,392,320.8,391.4z"/>
		<path d="M342.8,392.7c-1,0.9-2.4,1.4-4.4,1.4h-3.3v7.1H333v-16.9h5.5c1.9,0,3.4,0.5,4.4,1.4c1,0.9,1.5,2.1,1.5,3.6
			C344.3,390.6,343.8,391.8,342.8,392.7z M341.2,391.5c0.6-0.5,0.9-1.3,0.9-2.3c0-2.1-1.2-3.1-3.6-3.1h-3.3v6.2h3.3
			C339.7,392.3,340.6,392,341.2,391.5z"/>
		<path d="M350.9,388.3c0.7-0.4,1.6-0.6,2.6-0.6v2.3h-0.6c-2.5,0-3.7,1.3-3.7,4v7.2H347v-13.3h2.2v2.2
			C349.6,389.3,350.2,388.7,350.9,388.3z"/>
		<path d="M358.5,400.5c-1-0.6-1.8-1.4-2.4-2.4c-0.6-1-0.9-2.3-0.9-3.6c0-1.4,0.3-2.6,0.9-3.6c0.6-1,1.4-1.8,2.4-2.4
			c1-0.6,2.2-0.8,3.4-0.8s2.4,0.3,3.4,0.8c1,0.6,1.8,1.4,2.4,2.4c0.6,1,0.9,2.2,0.9,3.6s-0.3,2.6-0.9,3.6c-0.6,1-1.4,1.8-2.5,2.4
			c-1,0.6-2.2,0.8-3.4,0.8C360.6,401.4,359.5,401.1,358.5,400.5z M364.1,398.9c0.7-0.4,1.3-0.9,1.7-1.7c0.4-0.7,0.6-1.6,0.6-2.7
			s-0.2-2-0.6-2.7c-0.4-0.7-1-1.3-1.6-1.7c-0.7-0.4-1.4-0.5-2.2-0.5c-0.8,0-1.5,0.2-2.2,0.5c-0.7,0.4-1.2,0.9-1.6,1.7
			c-0.4,0.7-0.6,1.6-0.6,2.7c0,1.1,0.2,2,0.6,2.7c0.4,0.7,0.9,1.3,1.6,1.7c0.7,0.4,1.4,0.5,2.2,0.5
			C362.7,399.5,363.4,399.3,364.1,398.9z"/>
	</g>
</g>
</svg>
