<?xml version="1.0" encoding="utf-8"?>
<!-- Generator: Adobe Illustrator 24.1.2, SVG Export Plug-In . SVG Version: 6.00 Build 0)  -->
<svg version="1.1" id="Capa_1" xmlns="http://www.w3.org/2000/svg" xmlns:xlink="http://www.w3.org/1999/xlink" x="0px" y="0px"
	 viewBox="0 0 500 500" style="enable-background:new 0 0 500 500;" xml:space="preserve">
<style type="text/css">
	.st0{fill:#B06E5A;stroke:#B06E5A;stroke-miterlimit:10;}
</style>
<path class="st0" d="M365,258.1c-2.6-10-9.5-33.6-22.8-56.9c-20.7-36.5-48.2-57.7-80.1-61.8c0.7-0.5,1.2-1.4,1.2-2.4v-22.6
	c0-1.7-1.3-3-3-3h-22.6c-1.7,0-3,1.3-3,3V137c0,1.7,1.3,3,3,3h2.4c-33.2,3.1-61.9,24.4-83.3,62.2c-12.8,22.7-19.8,45.6-22.5,56
	c-5,0.7-8.9,5-8.9,10.2c0,5.7,4.6,10.4,10.4,10.4c5.7,0,10.4-4.6,10.4-10.4c0-4.4-2.8-8.2-6.7-9.7c2.8-10.5,9.6-32.4,21.9-54.2
	c21.5-37.8,49.1-57.9,82.3-59.7L186.1,282c-0.4,1-0.3,2.1,0.2,3l21.7,39.4h-2.4c-3.8,0-7,3.1-7,7c0,3.8,3.1,7,7,7h5.1v50.3h72.9
	v-50.3h6c3.8,0,7-3.1,7-7c0-3.8-3.2-7-7-7h-3.1l22.5-41.1c0.5-0.9,0.6-2,0.2-3l-56.1-136.6c34.3,0.9,62.8,21,84.8,59.8
	c12.8,22.6,19.6,45.4,22.2,55.4c-3.6,1.6-6.1,5.2-6.1,9.5c0,5.7,4.6,10.4,10.4,10.4c5.7,0,10.4-4.6,10.4-10.4
	C374.6,263,370.4,258.5,365,258.1z M240.7,117.4h16.6V134h-16.6V117.4z M278.6,324.4H251v-84.9c0-0.1,0-0.2,0-0.3
	c5.7-1.5,9.9-6.7,9.9-12.9c0-7.4-6-13.3-13.3-13.3c-7.4,0-13.3,6-13.3,13.3c0,6.5,4.6,11.9,10.7,13.1c0,0,0,0,0,0.1v84.9h-29.2
	l-22.8-41.3l55.4-132l53.6,130.3L278.6,324.4z M247.6,233.5c-4,0-7.2-3.2-7.2-7.2s3.2-7.2,7.2-7.2c4,0,7.2,3.2,7.2,7.2
	S251.6,233.5,247.6,233.5z"/>
</svg>
