<?xml version="1.0" encoding="utf-8"?>
<!-- Generator: Adobe Illustrator 24.1.2, SVG Export Plug-In . SVG Version: 6.00 Build 0)  -->
<svg version="1.1" id="Capa_1" xmlns="http://www.w3.org/2000/svg" xmlns:xlink="http://www.w3.org/1999/xlink" x="0px" y="0px"
	 viewBox="0 0 500 500" style="enable-background:new 0 0 500 500;" xml:space="preserve">
<style type="text/css">
	.st0{fill:#B06E5A;stroke:#B06E5A;stroke-miterlimit:10;}
</style>
<g>
	<path class="st0" d="M341,307c-11.8,0-22.2,6.2-28.4,15.5l-121-60.4c1.1-3.4,1.7-7.1,1.7-10.9c0-3.9-0.7-7.7-1.8-11.2l121.4-62.1
		C319,187,329.3,193,341,193c18.9,0,34.2-15.7,34.2-35c0-19.3-15.4-35-34.2-35c-18.9,0-34.2,15.7-34.2,35c0,3.9,0.7,7.7,1.8,11.2
		l-121.4,62.1c-6.2-9.2-16.5-15.2-28.2-15.2c-18.9,0-34.2,15.7-34.2,35c0,19.3,15.4,35,34.2,35c11.8,0,22.2-6.2,28.4-15.5l121,60.4
		c-1.1,3.4-1.7,7.1-1.7,10.9c0,19.3,15.4,35,34.2,35c18.9,0,34.2-15.7,34.2-35C375.2,322.7,359.8,307,341,307z M316.1,158
		c0-14,11.1-25.4,24.8-25.4c13.7,0,24.8,11.4,24.8,25.4c0,14-11.1,25.4-24.8,25.4C327.3,183.4,316.1,172,316.1,158z M183.9,251.2
		c0,14-11.1,25.4-24.8,25.4c-13.7,0-24.8-11.4-24.8-25.4c0-14,11.1-25.4,24.8-25.4C172.7,225.8,183.9,237.2,183.9,251.2z
		 M318.6,330.9C318.7,330.9,318.7,330.9,318.6,330.9c0.1-0.1,0.1-0.1,0.1-0.1c4.1-8.4,12.5-14.2,22.3-14.2
		c13.7,0,24.8,11.4,24.8,25.4c0,14-11.1,25.4-24.8,25.4c-13.7,0-24.8-11.4-24.8-25.4C316.1,338,317.1,334.3,318.6,330.9z"/>
</g>
</svg>
