<?xml version="1.0" encoding="utf-8"?>
<!-- Generator: Adobe Illustrator 24.1.2, SVG Export Plug-In . SVG Version: 6.00 Build 0)  -->
<svg version="1.1" id="Capa_1" xmlns="http://www.w3.org/2000/svg" xmlns:xlink="http://www.w3.org/1999/xlink" x="0px" y="0px"
	 viewBox="0 0 500 500" style="enable-background:new 0 0 500 500;" xml:space="preserve">
<style type="text/css">
	.st0{fill:none;}
	.st1{clip-path:url(#SVGID_1_);}
	.st2{clip-path:url(#SVGID_2_);}
	.st3{clip-path:url(#SVGID_3_);}
	.st4{fill:url(#SVGID_4_);}
	.st5{fill:#1D2B33;}
	.st6{fill:#828383;}
	.st7{fill:#FABD09;}
	.st8{fill:#4A8BCA;}
	.st9{fill:#34AA53;}
	.st10{fill:#7F8080;}
	.st11{fill:#767676;}
	.st12{fill-rule:evenodd;clip-rule:evenodd;fill:#767676;}
	.st13{fill:#F8AB09;}
	.st14{fill:#E3750B;}
	.st15{fill:#3974BA;enable-background:new    ;}
	.st16{fill:#020203;}
</style>
<rect class="st0" width="500" height="500"/>
<g>
	<g>
		<path class="st11" d="M200.5,266.1l8.8,23h-17L200.5,266.1L200.5,266.1z M197.2,258.4l-19.2,50.5h7.1l4.9-13.7h21.4l4.9,13.7h7.1
			l-19.2-50.5H197.2L197.2,258.4z M300.9,308.9h6.6v-50.5h-6.6V308.9L300.9,308.9z M233.4,279.2c2.2-3.3,6.6-6,11-6
			c8.8,0,13.2,6,13.2,14.8v21.4H251v-20.3c0-7.1-3.8-9.9-8.8-9.9c-5.5,0-9.3,5.5-9.3,10.4v19.2h-6.6v-35.1h6.6L233.4,279.2
			L233.4,279.2z M263.1,298.5c0-7.7,7.1-12.1,15.4-12.1c4.9,0,8.2,1.1,9.3,2.2v-1.1c0-5.5-4.4-8.2-8.8-8.2c-3.8,0-7.1,1.6-8.2,4.9
			l-6-2.7c1.1-3.3,5.5-8.2,14.3-8.2c8.2,0,15.4,4.9,15.4,14.8v20.8h-6v-4.9h-0.6c-1.6,2.7-5.5,6-11.5,6
			C269.1,310,263.1,305.6,263.1,298.5 M287.7,294.1c0,0-2.7-2.2-8.2-2.2c-6.6,0-9.3,3.8-9.3,6.6c0,3.8,3.8,5.5,7.1,5.5
			C282.2,304,287.7,299.6,287.7,294.1"/>
		<path class="st12" d="M316.8,324.2l7.7-18.1l-13.7-31.8h6.6l10.4,24.1l10.4-24.1h6.6l-21.4,49.9H316.8L316.8,324.2z M413.4,285.8
			c-1.6-4.4-5.5-7.1-9.3-7.1c-5.5,0-10.4,4.9-10.4,12.1s4.9,12.1,10.4,12.1c3.8,0,7.7-2.7,9.3-6.6l5.5,3.3c-2.7,6-8.2,9.9-14.8,9.9
			c-9.3,0-17-8.2-17-18.6c0-11,7.7-18.6,17-18.6c6.6,0,12.1,3.8,14.8,9.9L413.4,285.8L413.4,285.8z"/>
		<path class="st11" d="M436.9,310c8.8,0,13.2-4.9,13.2-11c0-13.2-19.2-8.2-19.2-15.9c0-2.7,2.2-4.4,6-4.4c3.8,0,7.7,1.6,9.3,4.4
			l3.8-3.8c-2.2-2.7-8.2-6.6-13.7-6.6c-8.2,0-12.6,4.9-12.6,11c0,12.6,19.7,8.2,19.7,14.8c0,3.3-2.2,5.5-6.6,5.5
			c-4.4,0-6.6-2.7-8.8-5.5l-4.9,3.9C426.5,305.6,431.5,310,436.9,310L436.9,310z M374.4,308.9h6.6v-35.1h-6.6V308.9z"/>
		<path class="st12" d="M377.1,256.8c2.7,0,4.4,2.2,4.4,4.4c0,2.7-2.2,4.4-4.4,4.4c-2.2,0-4.4-2.2-4.4-4.4
			C372.8,259,375,256.8,377.1,256.8z M367.8,303.4l1.1,4.9h-6.6c-6,0-8.8-4.4-8.8-11v-17.1h-6.6v-6.6h6.6v-10.4h6.6v10.4h7.7v6.6
			h-7.7v18.1C360.2,303.4,364,303.4,367.8,303.4L367.8,303.4z"/>
		<path class="st11" d="M211.4,202.6v8.2h19.2c-0.6,4.4-2.2,7.7-4.4,9.9c-2.7,2.7-7.1,6-14.8,6c-11.5,0-20.8-9.3-20.8-21.4
			c0-11.5,9.3-21.4,20.8-21.4c6.6,0,11,2.7,14.3,5.5l5.5-5.5c-4.9-4.4-11-8.2-19.7-8.2c-15.9,0-29.6,13.2-29.6,29s13.7,29,29.6,29
			c8.8,0,15.4-2.7,20.3-8.2c5.5-5.5,7.1-12.6,7.1-18.6c0-1.6,0-3.8-0.6-4.9h-26.9L211.4,202.6z M260.2,196
			c-10.4,0-18.6,7.7-18.6,18.6c0,10.9,8.2,18.6,18.6,18.6c10.2,0.1,18.6-8.1,18.6-18.3c0-0.1,0-0.2,0-0.3
			C278.9,203.7,270.6,196,260.2,196z M260.2,226.1c-5.5,0-10.4-4.9-10.4-11.5s4.9-11.5,10.4-11.5c5.5,0,10.4,4.4,10.4,11.5
			S265.7,226.2,260.2,226.1L260.2,226.1z M350.1,199.9c-2.2-2.2-5.5-4.4-10.4-4.4c-9.3,0-17.6,8.2-17.6,18.6s8.2,18.6,17.6,18.6
			c4.4,0,8.2-2.2,9.9-4.4h0.6v2.7c0,7.1-3.8,11-9.9,11c-4.9,0-8.2-3.8-9.3-6.6l-7.1,2.7c2.2,4.9,7.7,11,16.5,11
			c9.9,0,18.1-5.5,18.1-19.7v-34h-7.7v4.4L350.1,199.9z M340.8,226.2c-5.5,0-9.9-4.9-9.9-11.5s4.4-11.5,9.9-11.5s9.9,4.9,9.9,11.5
			C350.7,221.2,346.3,226.2,340.8,226.2z M300.8,196c-10.4,0-18.6,7.7-18.6,18.6s8.2,18.6,18.6,18.6c10.2,0.1,18.6-8.1,18.6-18.3
			c0-0.1,0-0.2,0-0.3C320,203.7,311.2,196,300.8,196z M300.8,226.2c-5.5,0-10.4-4.9-10.4-11.5s4.9-11.5,10.4-11.5
			s10.4,4.4,10.4,11.5C311.2,221.8,306.2,226.2,300.8,226.2z M364.5,176.3h8.2v57h-8.2V176.3z M395.2,226.2c-4.4,0-7.1-2.2-9.3-5.5
			l25.2-10.4l-1.1-2.2c-1.6-4.4-6.6-12.1-15.9-12.1c-9.9,0-17.6,7.7-17.6,18.6c-0.1,10.2,8.1,18.6,18.3,18.6c0.1,0,0.2,0,0.3,0
			c8.8,0,13.7-5.5,15.9-8.2l-6.6-4.4C402.3,224,399.5,226.2,395.2,226.2L395.2,226.2z M394.6,203.2c3.3,0,6,1.6,7.1,4.4l-17,7.1
			C384.7,206.5,390.2,203.2,394.6,203.2z"/>
	</g>
	<g transform="matrix(.198617 0 0 .198616 29.128442 -18.08775)">
		<path class="st13" d="M508.8,1069v485.1c0,54.3,37.5,84.5,77.2,84.5c36.7,0,77.2-25.7,77.2-84.5v-481.4
			c0-49.8-36.7-80.8-77.2-80.8C545.6,991.8,508.8,1026.1,508.8,1069z"/>
		<g>
			<path class="st14" d="M306.7,1315.2v238.9c0,54.3,37.5,84.5,77.2,84.5c36.7,0,77.2-25.7,77.2-84.5v-235.2
				c0-49.8-36.7-80.8-77.2-80.8S306.7,1272.3,306.7,1315.2z"/>
			<circle class="st14" cx="181.8" cy="1561.4" r="77.2"/>
		</g>
	</g>
</g>
</svg>
