<?xml version="1.0" encoding="utf-8"?>
<!-- Generator: Adobe Illustrator 24.1.2, SVG Export Plug-In . SVG Version: 6.00 Build 0)  -->
<svg version="1.1" id="Capa_1" xmlns="http://www.w3.org/2000/svg" xmlns:xlink="http://www.w3.org/1999/xlink" x="0px" y="0px"
	 viewBox="0 0 500 500" style="enable-background:new 0 0 500 500;" xml:space="preserve">
<style type="text/css">
	.st0{fill:#231F20;}
	.st1{fill:#2C3B8D;}
</style>
<g>
	<path class="st0" d="M41.1,350.4V102h34.2v248.4H41.1z M140.8,330.6h-30L82.3,229V102.1h2.5L140.8,330.6z M134.2,272l42.1-169.9
		h2.9V229l-30.7,101.7L134.2,272z M186.2,350.3V102h34.2v248.4L186.2,350.3z"/>
	<path class="st1" d="M252.4,161.8l-24.5,2.4V131c4.3-1.9,8.5-3.8,12.6-5.9c4.2-2.1,8.1-4.7,11.8-7.6L252.4,161.8z M259.1,114.3
		c2.1-1.5,3.9-3.3,5.4-5.3c1.7-2.3,3.2-4.6,4.6-7.1h32.1v248.5h-41.9L259.1,114.3z"/>
	<path class="st1" d="M391.2,354.5c-11.4-0.4-21-2.5-28.9-6.3c-7.5-3.6-14-9-18.9-15.8c-5-7.1-8.5-15.1-10.3-23.6
		c-2.2-9.8-3.2-19.9-3.1-30c0-13.6,1.8-25.3,5.4-35.3c3.6-9.9,10-18.5,18.6-24.6c-7.4-6.2-13-14.3-16.3-23.3
		c-3.6-9.9-5.4-20.4-5.3-30.9c-0.1-9,1.1-18,3.6-26.6c2.2-7.7,5.8-14.8,10.8-21c4.9-6,11.2-10.9,18.3-14.1
		c7.4-3.4,16.1-5.3,26.1-5.7v33.9c-3,0.4-5.8,1.8-8.1,3.8c-2.2,2-3.9,4.4-5.1,7.1c-1.3,2.9-2.2,6.1-2.6,9.3
		c-0.5,3.3-0.7,6.7-0.7,10.1c0,4.1,0.2,8.4,0.5,13c0.3,4.3,1,8.6,2.2,12.8c1,3.8,2.7,7.3,5,10.5c2.1,2.9,5.2,5,8.7,5.7v34
		c-4,0.7-7.5,2.7-10.2,5.8c-2.7,3.2-4.7,6.8-6,10.8c-1.4,4.4-2.4,8.9-2.9,13.5c-0.5,4.6-0.7,9.1-0.8,13.7c0,4.7,0.2,9.2,0.6,13.7
		c0.3,4.1,1.3,8.2,2.7,12.1c1.3,3.4,3.3,6.5,6,9c2.9,2.6,6.6,4.1,10.5,4.3L391.2,354.5z M398.2,320.1c3.9-0.3,7.5-1.9,10.5-4.4
		c2.7-2.5,4.7-5.6,6-9c1.5-3.9,2.4-7.9,2.8-12.1c0.5-4.5,0.7-9.1,0.7-13.6c0-4.4-0.2-8.9-0.7-13.7c-0.4-4.6-1.4-9.1-2.9-13.4
		c-1.3-4-3.4-7.6-6.1-10.8c-2.7-3.1-6.3-5.1-10.3-5.8v-34c3.5-0.7,6.7-2.7,8.9-5.6c2.3-3.2,4-6.7,5-10.5c1.2-4.2,1.9-8.5,2.2-12.9
		c0.3-4.6,0.5-8.9,0.5-13c0-3.3-0.2-6.7-0.7-10c-0.4-3.2-1.3-6.3-2.6-9.3c-1.2-2.7-2.9-5.2-5.1-7.2c-2.3-2-5.2-3.3-8.2-3.8V97.2
		c10.1,0.4,18.9,2.3,26.2,5.7c7.1,3.2,13.3,8.1,18.3,14.1c5,6.2,8.6,13.3,10.7,21c2.4,8.7,3.6,17.6,3.5,26.6
		c0.1,10.5-1.6,21-5.1,30.9c-3.2,9.1-8.9,17.2-16.4,23.3c8.5,6.1,15.1,14.7,18.8,24.5c3.7,9.9,5.5,21.7,5.5,35.4
		c0.1,10.1-1,20.1-3.2,29.9c-1.9,8.5-5.4,16.5-10.4,23.6c-4.9,6.8-11.4,12.2-19,15.8c-7.8,3.9-17.5,6-28.9,6.3L398.2,320.1z"/>
	<path class="st0" d="M43.8,402.7h-3.5v-31.2h3.5V402.7z"/>
	<path class="st0" d="M82.2,402.7h-2.4l-10.5-22.9v22.9h-3.3v-31.2h2.6l10.3,22.5v-22.5h3.3V402.7z"/>
	<path class="st0" d="M120.2,397.1c0,1.6-0.8,3.1-2.1,4c-1.5,1.1-3.3,1.7-5.2,1.6h-9v-31.2h9c1.9-0.1,3.7,0.5,5.2,1.6
		c1.3,0.9,2,2.5,2,4L120.2,397.1z M116.7,396.8v-19.4c0-1-0.4-1.9-1.2-2.4c-0.9-0.7-2-1-3.2-0.9h-4.9v26.2h4.7
		c1.2,0.1,2.3-0.3,3.3-0.9C116.3,398.8,116.7,397.8,116.7,396.8z"/>
	<path class="st0" d="M158.2,400.5c0,0.6-0.3,1.2-0.8,1.6c-0.6,0.4-1.3,0.6-2,0.6h-10.8c-0.7,0-1.4-0.2-2-0.6
		c-0.5-0.4-0.8-1-0.8-1.6v-29h3.5v28.8h9.4v-28.7h3.5L158.2,400.5z"/>
	<path class="st0" d="M199.6,402.7h-3.3V383c0.1-0.8,0.2-1.6,0.4-2.5l-6.5,19.3h-0.7l-6.4-19.3c0.2,0.8,0.3,1.6,0.4,2.5v19.8H180
		v-31.2h3.3l6.4,20.3c0.1,0.3,0.1,0.6,0.1,0.9c0-0.3,0-0.6,0.1-0.9l6.4-20.3h3.3L199.6,402.7z"/>
	<path class="st0" d="M234.3,402.7h-13v-31.2h12.8v2.4h-9.3v11.6h8.5v2.5h-8.5v12.2h9.5L234.3,402.7z"/>
	<path class="st0" d="M271.5,402.7h-2.4l-10.5-22.9v22.9h-3.3v-31.2h2.6l10.3,22.5v-22.5h3.3L271.5,402.7z"/>
	<path class="st0" d="M307,374h-6.1v28.7h-3.5V374h-6.2v-2.5H307V374z"/>
	<path class="st0" d="M342.5,402.7H339l-1.4-6.9h-7.9l-1.4,6.9H325v-0.1l7-31.2h3.5L342.5,402.7z M337.1,393.4l-3.5-16.9l-3.5,16.9
		H337.1z"/>
	<path class="st0" d="M379.5,402.7h-3.7l-7.3-16.7l0.5-0.6h6.3V374h-9v28.7h-3.5v-31.2h13.2c0.7,0,1.4,0.2,2,0.6
		c0.5,0.4,0.8,1,0.8,1.6v11.8c0,1.5-1.3,2.3-3.8,2.3h-1.1h-1.1C375,392.8,377.2,397.8,379.5,402.7z"/>
	<path class="st0" d="M403.9,402.7h-3.5v-31.2h3.5V402.7z"/>
	<path class="st0" d="M441.9,402.7h-3.5l-1.4-6.9h-7.8l-1.4,6.9h-3.4v-0.1l7-31.2h3.5L441.9,402.7z M436.6,393.4l-3.5-16.9
		l-3.5,16.9H436.6z"/>
</g>
</svg>
