<?xml version="1.0" encoding="utf-8"?>
<!-- Generator: Adobe Illustrator 24.1.2, SVG Export Plug-In . SVG Version: 6.00 Build 0)  -->
<svg version="1.1" id="Capa_1" xmlns="http://www.w3.org/2000/svg" xmlns:xlink="http://www.w3.org/1999/xlink" x="0px" y="0px"
	 viewBox="0 0 500 500" style="enable-background:new 0 0 500 500;" xml:space="preserve">
<style type="text/css">
	.st0{fill:none;}
	.st1{clip-path:url(#SVGID_1_);}
	.st2{clip-path:url(#SVGID_2_);}
	.st3{clip-path:url(#SVGID_3_);}
	.st4{fill:url(#SVGID_4_);}
	.st5{fill:#1D2B33;}
	.st6{fill:#828383;}
	.st7{fill:#FABD09;}
	.st8{fill:#4A8BCA;}
	.st9{fill:#34AA53;}
	.st10{fill:#7F8080;}
	.st11{fill:#767676;}
	.st12{fill-rule:evenodd;clip-rule:evenodd;fill:#767676;}
	.st13{fill:#F8AB09;}
	.st14{fill:#E3750B;}
	.st15{fill:#3974BA;enable-background:new    ;}
	.st16{fill:#020203;}
</style>
<rect class="st0" width="500" height="500"/>
<g>
	<g>
		<path class="st7" d="M176.4,287.8L176.4,287.8c-15.3-8.8-20.6-28.6-11.8-43.9l63.5-110c8.8-15.3,28.6-20.6,43.9-11.8l0,0
			c15.3,8.8,20.6,28.6,11.8,43.9l-63.5,110C211.5,291.3,191.7,296.6,176.4,287.8z"/>
		<path class="st8" d="M335.9,287.3L335.9,287.3c-15.3,8.8-35,3.5-43.9-11.8l-63.5-110c-8.8-15.3-3.5-35,11.8-43.9l0,0
			c15.3-8.8,35-3.5,43.9,11.8l63.5,110C356.5,258.7,351.2,278.5,335.9,287.3z"/>
		<circle class="st9" cx="192.9" cy="259.5" r="32.6"/>
	</g>
	<g>
		<path id="path4243" class="st5" d="M231.8,356.8c4.6-1.3,7.3-5.3,7.3-10.7c0-3.3-0.9-5.9-2.7-7.9c-5.3-5.7-14.3-3.2-16.5,4.5
			c-0.9,3.1-0.9,3.4,0.1,6.8c0.9,3.1,3.5,6.3,5.7,6.7c0.6,0.2,1.6,0.4,2.1,0.7C229,357.6,229.1,357.6,231.8,356.8L231.8,356.8z
			 M223.5,381.8c-4.8-1.6-9.2-5.3-11.5-9.8c-0.7-1.3-0.3-1.5,4-3.2c3-1.2,4-1.3,4-0.5c0,1.1,2.9,4.1,4.9,5c4,1.9,9.2,0.7,11.7-2.5
			c1.1-1.5,2.2-5.5,2-7.7l-0.1-1.2l-1.9,1.3c-2.7,1.9-7.1,2.7-10.7,2c-4.3-0.8-7-2.3-10-5.2c-3.1-3.1-4.4-5.7-5.4-10.3
			c-1.9-9.2,3.9-19.1,13.1-22c4.6-1.5,11.2-0.5,13.9,2.1l1.1,1l0.2-1.3l0.2-1.3h4.2h4.2l0.2,18.6c0.2,19.5-0.1,22.2-2.1,26.4
			c-2,4.1-5.9,7.4-10.7,8.9C231.5,382.8,226.6,382.8,223.5,381.8z"/>
		<path id="path4239" class="st5" d="M152.3,355.3c3.6-2.5,5.4-7.9,4.1-12.6c-1.1-3.9-5.6-7.5-9.4-7.5c-6.1,0-10.6,4.5-10.6,10.8
			c0,5,3.1,9.6,7.2,10.6C146.1,357.3,150.2,356.7,152.3,355.3z M142.9,365.2c-7.4-1.3-12.7-6.1-15.2-13.7c-1.2-3.5-0.8-9.6,0.8-13
			c3.4-7.4,10-11.6,18-11.6c15.2,0.1,24.1,15.4,17,29.2c-2.1,3.9-7.9,8.1-12.4,9C147,365.8,146.4,365.8,142.9,365.2z"/>
		<path id="path4235" class="st5" d="M274.4,344.3c1.7-0.8,1.1-0.6,1.4-0.6c0.3,0,2.2-0.8,3.9-1.6c1.6-0.8,3.3-1.4,3.8-1.4
			c0.4,0-2,1-2,0.8c0-0.2,3.9-2,5.3-2.4c2.5-0.8,2.5-0.9,1.7-1.7c-2.4-2.6-7.1-3.1-10.2-1.1c-2.6,1.6-4.6,4.4-5,6.7
			C272.9,345.1,272.7,345.1,274.4,344.3z M279.3,365.1c-7.4-1.7-12.2-6.4-14.6-14.1c-0.7-2.1-0.6-8.2,0.1-10.2
			c2.8-8.8,9.3-14,17.5-14c4.7,0,8.5,1.6,11.8,4.9c2.4,2.4,5.5,7.5,5.5,9.2c0,1.1-0.6,1.4-6.3,3.7c-4.6,1.8-6.8,2.7-10.4,4.3
			c-0.6,0.3-1.6,0.7-2.1,0.9s-1.9,0.8-3,1.3c-1.1,0.5-2.4,1-2.7,1.1c-1.1,0.4,2.7,3.9,4.8,4.5c4.2,1.1,7.8,0.4,10.7-2.3
			c1.1-1,2.2-1.8,2.5-1.8c0.8,0,6.6,3.9,6.6,4.5c0,1-4.1,4.7-6.7,6.2c-2.5,1.3-8.1,2.9-10,2.8C282.4,365.8,280.8,365.5,279.3,365.1
			L279.3,365.1z"/>
		<path id="path4233" class="st5" d="M91.4,365c-5.7-0.9-11.2-3.9-15.9-8.7c-3.3-3.4-5.6-7-7.4-12c-1.2-3.2-1.1-13.8,0.1-17.1
			c3.8-10.3,11-17.2,21.2-20.3c3.2-1,13.6-0.8,16.5,0.2c4.4,1.6,9.9,4.7,11.4,6.6c0.6,0.7,0.3,1.1-2.3,3.8c-1.6,1.6-3.1,3-3.2,3
			s-0.9-0.5-1.6-1.2c-3.9-3.3-11.3-5-16.9-4c-6.4,1.2-11.7,5.2-14.7,11.2c-1.5,3-2.5,3.1-2.5,9.3c0,5.9,1,6.5,2.2,9
			c0.7,1.5,2.5,4,3.9,5.5c5.3,5.6,13.1,7.8,20.5,5.8c4.2-1.1,6-2.1,8.5-4.6c2.3-2.2,3.8-4.9,4.3-7.9l0.3-1.7l-9.4-0.1l-9.4-0.1v-4.3
			v-4.3l13.5,0.1c7.4,0,13.6,0.1,13.8,0.1s0.5,1.1,0.8,2.5c1,5.1-0.9,13-4.5,18.6c-3,4.6-6.2,7-13.1,10.1
			C104.6,365.2,96.3,365.7,91.4,365L91.4,365z"/>
		<path id="path4229" class="st5" d="M191.3,356.5c2.2-0.6,5-3.3,6.1-5.8c0.4-1,1.1-2.9,1-4.8c-0.2-2.7-0.7-4.7-1.3-5.4
			c-2.4-2.9-3.7-4-5.5-4.6c-4-1.4-7.7-0.6-10.7,2.2c-5.9,5.6-3.6,15.9,4,18.5C187.2,357.4,188,357.3,191.3,356.5z M183.3,365
			c-4.9-1-10.1-5-12.4-9.5c-3.9-7.5-2.9-16.2,2.5-22.2c7.8-8.6,21.5-8.6,29.3,0c6.8,7.4,6.1,20.8-1.4,27.3
			c-3.6,3.1-7.1,4.5-11.8,4.7C187.2,365.3,184.4,365.2,183.3,365L183.3,365z"/>
		<path id="path4213" class="st5" d="M252.1,336.2v-28.4l4.5,0.2l4.5,0.2v28.1v28.1l-4.5,0.2l-4.5,0.2V336.2L252.1,336.2z"/>
		<path id="path4203" class="st10" d="M350.9,340.9c-0.2-0.4-2.1-5.7-4.3-11.7c-2.2-6-4.1-11.1-4.3-11.3c-0.3-0.4-4.1,9.3-4.3,11.3
			c-0.1,0.4-0.3,1-0.4,1.2c-0.4,0.7-4.1,10.5-4.1,11c0,0.2,4,0.4,8.9,0.4C350.5,341.7,351.2,341.7,350.9,340.9L350.9,340.9z
			 M317.2,363.3c0-0.3,1.9-5.5,4.2-11.6c2.3-6.1,5.1-13.6,6.2-16.5c3-8,7.6-20.3,8.9-23.6c0.6-1.6,1.1-3.1,1.1-3.4
			c0-0.3,1.5-0.5,4.4-0.5c3.7,0,4.4,0.1,4.7,0.8c1.2,3.2,16.9,44.8,17.9,47.5c0.7,1.9,1.6,4.3,2,5.3c0.4,1,0.8,1.9,0.8,2
			c0,0.1-1.9,0.2-4.2,0.2h-4.2l-1-2.7c-0.6-1.5-1.7-4.8-2.6-7.5l-1.6-4.8h-11.5h-11.5l-0.7,2c-0.4,1.1-1.6,4.5-2.7,7.5l-2,5.5
			l-4.1,0.1C318.8,363.8,317.2,363.6,317.2,363.3z M417.6,364.4c-4.4-0.6-8.1-3.1-10.3-7.3c-0.8-1.6-0.7-1.9,1.4-2.7
			c1.1-0.4,2.1-1,2.3-1.3c0.2-0.3,0.7-0.1,1.2,0.6c4,4.8,4.8,5.3,9.1,5c2.6-0.2,3-0.4,4.2-1.8c2.6-3.1,0.7-5-6.5-6.9
			c-8.1-2.1-11.3-4.8-11.3-9.5c0-3.8,1.4-6,5-7.9c2.8-1.4,3.4-1.5,7.5-1.5c4,0,4.7,0.2,6.9,1.3c2.6,1.3,5.8,5.1,5.4,6.2
			c-0.1,0.3-0.4,0.5-0.6,0.4c-0.2-0.1-1.4,0.2-2.6,0.7c-1.5,0.6-2.3,0.8-2.4,0.5c-0.3-0.8-2-2.3-3.5-3.1c-1.8-1-5.9-0.6-7.6,0.6
			c-0.8,0.6-1.3,1.4-1.4,2.4c-0.2,2.1,1.3,3,7.2,4.5c7.2,1.8,8.9,2.8,10.6,6.3c1.2,2.5,0.8,6.9-0.9,9.1
			C428.4,363.7,423.8,365.2,417.6,364.4z M391,357.3c1.1-0.7,2.4-2.2,3.2-3.7c1.1-2,1.3-2.9,1.3-5.7c0-4.1-1-6.5-3.5-8.7
			c-3.9-3.5-8.6-3.5-12.4,0.1c-2.3,2.2-3.3,4.6-3.4,7.9c-0.1,5.2,2,9,5.9,10.9C384.6,359.3,388.5,359,391,357.3L391,357.3z
			 M382.3,364.4c-4.6-0.7-8.7-4.1-11.1-9.2c-1.1-2.3-1.2-3.2-1.2-7c0-5.8,1.3-9.5,4.5-12.6c3.4-3.3,5.9-4.4,10.6-4.3
			c4.4,0,7,1,9.3,3.4l1.2,1.2l-0.3-9.2l-0.3-9.2l3.2-0.2c1.9-0.1,3.3,0.1,3.4,0.3c0.1,0.3,0.1,10.7,0.1,23.2l-0.1,22.7h-3h-3l0.2-2
			l0.2-2l-1.7,1.5C390.8,364.1,387,365.1,382.3,364.4L382.3,364.4z"/>
	</g>
</g>
</svg>
