<?xml version="1.0" encoding="utf-8"?>
<!-- Generator: Adobe Illustrator 24.1.2, SVG Export Plug-In . SVG Version: 6.00 Build 0)  -->
<svg version="1.1" id="Capa_1" xmlns="http://www.w3.org/2000/svg" xmlns:xlink="http://www.w3.org/1999/xlink" x="0px" y="0px"
	 viewBox="0 0 500 500" style="enable-background:new 0 0 500 500;" xml:space="preserve">
<style type="text/css">
	.st0{fill:none;}
	.st1{clip-path:url(#SVGID_1_);}
	.st2{clip-path:url(#SVGID_2_);}
	.st3{clip-path:url(#SVGID_3_);}
	.st4{fill:url(#SVGID_4_);}
	.st5{fill:#1D2B33;}
	.st6{fill:#828383;}
	.st7{fill:#FABD09;}
	.st8{fill:#4A8BCA;}
	.st9{fill:#34AA53;}
	.st10{fill:#7F8080;}
	.st11{fill:#767676;}
	.st12{fill-rule:evenodd;clip-rule:evenodd;fill:#767676;}
	.st13{fill:#F8AB09;}
	.st14{fill:#E3750B;}
	.st15{fill:#3974BA;enable-background:new    ;}
	.st16{fill:#020203;}
</style>
<rect class="st0" width="500" height="500"/>
<g>
	<path class="st15" d="M278.5,143.5L278.5,143.5c-0.1,0-0.1,0-0.1,0c-19.1,0-37.1,7.4-50.7,20.7c-6.8-2.9-14.4-4.5-22.1-4.5
		c-31.2,0-56.6,25.3-56.6,56.6s25.3,56.6,56.6,56.6c7.6,0,15.1-1.6,22-4.5c13.1,12.8,31,20.7,50.7,20.7c40.2,0,72.8-32.6,72.8-72.8
		C351.2,176.3,318.6,143.5,278.5,143.5z M278.4,272.9c-31.2,0-56.6-25.3-56.6-56.6h-16.2c0,14.3,4.1,27.7,11.2,38.9
		c-3.6,1-7.4,1.6-11.2,1.6c-22.3,0-40.5-18.2-40.5-40.5s18.2-40.5,40.5-40.5c8.9,0,17.2,2.8,24.3,8.2c10.3,7.7,16.2,19.5,16.2,32.3
		h16.3c0-16.9-7.3-32.6-20.2-43.4c10.2-8.4,23-13.2,36.4-13.2c31.2,0,56.6,25.5,56.6,56.6C335,247.4,309.7,272.9,278.4,272.9z"/>
	<g>
		<path class="st16" d="M85.2,355.6v-27.8h-5.8v-6.9h5.8v-10.3h8.2v10.3h5.8v6.9h-5.8v27.8H85.2z"/>
		<path class="st16" d="M107.8,315.9c-2.7,0-5-2.3-5-5c0-2.8,2.3-5.1,5-5.1c2.9,0,5.1,2.3,5.1,5.1S110.7,315.9,107.8,315.9z
			 M103.8,355.6v-34.7h8.2v34.7H103.8z"/>
		<path class="st16" d="M150.4,347.5c-2.9,5.5-8.3,9-15.7,9c-10.5,0-18-7.5-18-18.2c0-10.4,7.6-18.2,17.6-18.2
			c10.1,0,17.2,7.8,17.2,18.2c0,0.6,0,1.5-0.1,2.5h-26.7c0.4,5,4.8,8.8,10,8.8c4.5,0,6.9-2.2,8.8-5.2L150.4,347.5z M143.5,334.8
			c-0.5-4.6-4.2-8-9.3-8c-4.9,0-8.7,4.1-9.3,8H143.5z"/>
		<path class="st16" d="M164.2,355.6h-8.2v-34.7h8.2v4.6c2.2-3.4,5.8-5.5,10.6-5.5c8.5,0,13.4,5.6,13.4,14.7v20.9h-8.2v-19.3
			c0-5.4-2.7-8.7-7.7-8.7c-4.9,0-8.1,3.7-8.1,9.7L164.2,355.6L164.2,355.6z"/>
		<path class="st16" d="M221.3,355.6v-5c-2.6,3.6-6.9,5.8-11.8,5.8c-9.6,0-16.9-7.8-16.9-18.2c0-10.2,7.3-18.2,16.9-18.2
			c4.8,0,9.2,1.9,11.8,5.6v-17.8h8.1v47.7H221.3z M211.2,349c5.8,0,10.4-4.8,10.4-10.8s-4.5-10.8-10.4-10.8s-10.4,4.8-10.4,10.8
			C200.8,344.2,205.3,349,211.2,349z"/>
		<path class="st16" d="M246.5,335.1l9.4-1.2v-1.5c0-3.4-2.4-5.7-6.2-5.7c-3.5,0-5.8,1.8-6.9,5.2l-7.5-1.9
			c1.7-6.2,7.3-10.1,14.4-10.1c9,0,14.1,4.8,14.1,12.9v22.5h-7.6l-0.1-4.2c-2.3,3.4-6.3,5.1-10.8,5.1c-6.6,0-11.2-4.2-11.2-10.1
			C234.2,340.1,238.3,336.4,246.5,335.1z M247.3,349.9c5.1,0,8.7-3.3,8.7-7.9V340l-7.9,1.1c-3.9,0.5-5.8,2.3-5.8,4.8
			S244.4,349.9,247.3,349.9z"/>
		<path class="st16" d="M278.7,355.6h-8.2v-34.7h8.2v4.6c2.2-3.4,5.8-5.5,10.6-5.5c8.5,0,13.4,5.6,13.4,14.7v20.9h-8.2v-19.3
			c0-5.4-2.7-8.7-7.7-8.7c-4.9,0-8.1,3.7-8.1,9.7L278.7,355.6L278.7,355.6z"/>
		<path class="st16" d="M308.7,340.7v-19.7h8.2v19.3c0,5.5,2.7,8.7,7.3,8.7c4.5,0,7.3-3.3,7.3-8.7v-19.3h8.2v19.7
			c0,10-5.8,15.8-15.4,15.8C314.5,356.5,308.7,350.7,308.7,340.7z"/>
		<path class="st16" d="M346.1,355.6v-47.7h8.1v18c2.6-3.6,6.9-5.8,11.8-5.8c9.6,0,16.9,7.8,16.9,18.2c0,10.2-7.3,18.2-16.9,18.2
			c-4.8,0-9.2-1.9-11.8-5.6v4.8H346.1z M364.4,327.5c-5.8,0-10.4,4.8-10.4,10.8c0,5.9,4.5,10.8,10.4,10.8s10.4-4.8,10.4-10.8
			S370.2,327.5,364.4,327.5z"/>
		<path class="st16" d="M419.4,347.5c-2.9,5.5-8.3,9-15.7,9c-10.5,0-18-7.5-18-18.2c0-10.4,7.6-18.2,17.6-18.2
			c10.1,0,17.2,7.8,17.2,18.2c0,0.6,0,1.5-0.1,2.5h-26.7c0.4,5,4.8,8.8,10,8.8c4.5,0,6.9-2.2,8.8-5.2L419.4,347.5z M412.5,334.8
			c-0.5-4.6-4.2-8-9.3-8c-4.9,0-8.7,4.1-9.3,8H412.5z"/>
	</g>
</g>
</svg>
