<?xml version="1.0" encoding="utf-8"?>
<!-- Generator: Adobe Illustrator 24.1.2, SVG Export Plug-In . SVG Version: 6.00 Build 0)  -->
<svg version="1.1" id="Capa_1" xmlns="http://www.w3.org/2000/svg" xmlns:xlink="http://www.w3.org/1999/xlink" x="0px" y="0px"
	 viewBox="0 0 500 500" style="enable-background:new 0 0 500 500;" xml:space="preserve">
<style type="text/css">
	.st0{fill:#006633;}
	.st1{fill:#EB628B;}
	.st2{fill:#FFFFFF;}
	.st3{fill:#3AB39C;}
</style>
<g>
	<path id="XMLID_119_" class="st0" d="M326.4,251.8C389.6,129.7,225.2,82.4,225.2,82.4c29.7,29.6,20.1,78.2,25.2,120.9
		c5.1,42.7,59.6,51.6,59.6,51.6c-1.9-63-43-127.6-43-127.6c57,64.7,55.5,153.9,54.9,168.1c-10.2-7.4-23.4-12.7-23.4-12.7
		c-43.2-87.3-139.3-13.5-139.3-13.5c29.4-4.5,53.5,25.2,79.6,36.4c28,12.1,54.5-12.3,54.5-12.3c-36.8-25.3-90.9-29.1-90.9-29.1
		c66.3-5.8,120.2,40.2,120.2,40.2l5.3,5.1h5.4L326.4,251.8z"/>
	<g>
		<path id="XMLID_121_" class="st0" d="M78.7,416.6v-63.6h26.1c8.5,0,16.5,0.4,23.6,4.8c10.1,6.1,12.7,18.5,12.7,26.9
			c0,8.4-2.2,17.8-9.2,24.1c-7,6.5-17,7.8-27.1,7.8H78.7z M85.9,411.4h17.3c6.5,0,12.1-0.4,17.9-2.9c10.2-4.3,12.7-15.2,12.7-23.9
			c0-9.3-2.4-19.4-13.2-24.2c-4.6-2-11.1-2.4-17.5-2.4H85.9V411.4z"/>
		<path id="XMLID_120_" class="st0" d="M153.1,416.6h-6.4v-45.8h6.4v8.6h0.2c3.5-7.3,8.7-9.8,17.9-9.8v5.7
			c-14.3-0.3-18.1,8.6-18.1,18.8V416.6z"/>
		<path id="XMLID_116_" class="st0" d="M198.5,416.4v-63.6h26.1c8.5,0,16.4,0.4,23.6,4.8c10.1,6.1,12.7,18.5,12.7,26.9
			c0,8.4-2.2,17.8-9.2,24.1c-7,6.5-17,7.8-27.1,7.8H198.5z M205.8,411.2h17.3c6.5,0,12.1-0.3,17.9-2.9c10.2-4.3,12.7-15.2,12.7-23.9
			c0-9.3-2.4-19.4-13.2-24.2c-4.6-2-11.1-2.4-17.5-2.4h-17.3V411.2z"/>
		<path id="XMLID_115_" class="st0" d="M303.8,370.6h6.4v45.8h-6.4V410c-3.4,3.2-8.1,7.6-17.7,7.6c-14.6,0-19.5-7.3-19.5-16.9v-30.1
			h6.4v30c0,7.9,4.1,12.2,14.1,12.2c10.5,0,16.8-7.2,16.8-17.3V370.6z"/>
		<polygon id="XMLID_114_" class="st0" points="311.7,370.6 318.6,370.6 336.5,409.8 354.3,370.6 361.2,370.6 339.9,416.4 
			332.7,416.4 		"/>
		<path id="XMLID_111_" class="st0" d="M387.2,389.7c2.3-0.2,6.3-0.7,8.4-1.5c2.1-0.8,2.3-3.2,2.3-4.8c0-5.4-3.8-9.3-13.7-9.3
			c-8.8,0-14.9,2.4-16,10.3h-6.5c1-10.8,10.6-15.1,22.6-15.1c11.1,0,20,3.6,20,14.2v24.9c0,4.2,1.3,5.1,6.7,3.5v4.1
			c-1,0.3-3.2,0.9-5,0.9c-1.1,0-1.9-0.1-2.9-0.3c-4.3-0.5-5-3.6-5.1-6.8c-5.3,4.9-12.5,7.6-20.5,7.6c-9.7,0-18.4-4.3-18.4-13.2
			c0-7.7,6.4-12.4,19.2-13.8L387.2,389.7z M398,392.3c-5.4,1.9-10.9,2.2-16.5,2.6c-9.7,0.6-15.5,3.5-15.5,9.7
			c0,5.6,5.8,8.2,11.9,8.2c10.1,0,20.1-4.1,20.1-13.3V392.3z"/>
		<rect id="XMLID_110_" x="415" y="352.7" class="st0" width="6.4" height="63.6"/>
		<path id="XMLID_105_" class="st0" d="M176.2,411.4c0,2.8-2.3,5.1-5.1,5.1c-2.8,0-5.1-2.3-5.1-5.1c0-2.8,2.3-5.1,5.1-5.1
			C173.9,406.3,176.2,408.6,176.2,411.4"/>
	</g>
</g>
</svg>
