<?xml version="1.0" encoding="utf-8"?>
<!-- Generator: Adobe Illustrator 24.1.2, SVG Export Plug-In . SVG Version: 6.00 Build 0)  -->
<svg version="1.1" id="Capa_1" xmlns="http://www.w3.org/2000/svg" xmlns:xlink="http://www.w3.org/1999/xlink" x="0px" y="0px"
	 viewBox="0 0 500 500" style="enable-background:new 0 0 500 500;" xml:space="preserve">
<style type="text/css">
	.st0{fill:#006633;}
	.st1{fill:#EB628B;}
	.st2{fill:#FFFFFF;}
	.st3{fill:#3AB39C;}
</style>
<g>
	<g>
		<path class="st1" d="M362.4,202.5c0,64.1-52,116-116,116s-116-52-116-116c0-64.1,51.9-116,116-116
			C310.5,86.5,362.4,138.4,362.4,202.5"/>
		<path class="st2" d="M247.6,208.5c5-2.3,6.6-9.3,3.6-15.5c-3-6.2-9.4-9.3-14.3-6.9c-5,2.3-6.6,9.3-3.6,15.5
			C236.2,207.8,242.6,210.9,247.6,208.5"/>
		<path class="st2" d="M262.4,171.6c4.7,29.8-16.5,52.1-16.5,52.1s-17.5-29.6-46.9-38.5c57.2,41.8,41.2,94,41.2,94
			S278.8,212.8,262.4,171.6"/>
		<path class="st2" d="M233.4,175c-0.3-0.5-0.6-1-1-1.5c-1.5-2.6-2.2-5-2.2-5s1.7,1.8,3.2,4.4c0.3,0.6,0.6,1.1,0.8,1.6
			c0.3-1.3,0.5-3.8-0.7-5.9c-1.7-2.9-5.5-3.8-5.5-3.8s-1.1,3.8,0.5,6.7C229.9,173.6,232.2,174.6,233.4,175"/>
		<path class="st2" d="M271.4,197c1,0.8,3,2.3,5.5,2.3c3.3,0,6-2.9,6-2.9s-2.7-2.9-6-2.9c-2.4,0-4.5,1.5-5.5,2.3
			c0.6-0.1,1.2-0.1,1.8-0.1c3,0,5.5,0.6,5.5,0.6s-2.4,0.6-5.5,0.6C272.6,197,272,197,271.4,197"/>
		<path class="st2" d="M259.3,172.9c1.5-2.6,3.2-4.4,3.2-4.4s-0.7,2.4-2.2,5c-0.3,0.6-0.6,1.1-1,1.5c1.2-0.4,3.6-1.5,4.8-3.6
			c1.7-2.9,0.5-6.7,0.5-6.7s-3.9,0.9-5.5,3.8c-1.2,2.1-0.9,4.6-0.7,5.9C258.7,174,258.9,173.4,259.3,172.9"/>
		<path class="st2" d="M245,157.2c0-6.7,1.4-12.2,1.4-12.2s1.3,5.5,1.3,12.2c0,1.4-0.1,2.8-0.2,4c1.8-2.1,5.2-6.7,5.2-12.1
			c0-7.4-6.4-13.4-6.4-13.4s-6.4,6-6.4,13.4c0,5.4,3.4,10,5.2,12.1C245.1,159.9,245,158.6,245,157.2"/>
		<path class="st2" d="M202.2,178.3c4.7,2.7,10.4,2.1,13.1,1.5c-1.2-0.5-2.4-1.2-3.6-1.9c-5.8-3.4-9.9-7.2-9.9-7.2s5.4,1.5,11.2,4.9
			c1.2,0.7,2.4,1.5,3.4,2.2c-0.9-2.7-3.2-7.9-7.9-10.6c-6.4-3.7-14.8-1.2-14.8-1.2S195.7,174.6,202.2,178.3"/>
		<path class="st2" d="M290.6,214.5c-4.7-2.7-10.3-2.1-13.1-1.5c1.2,0.6,2.3,1.2,3.6,1.9c5.8,3.3,9.9,7.2,9.9,7.2s-5.4-1.5-11.2-4.9
			c-1.2-0.7-2.3-1.4-3.4-2.2c0.9,2.7,3.2,7.9,7.9,10.6c6.4,3.7,14.8,1.2,14.8,1.2S297,218.2,290.6,214.5"/>
		<path class="st2" d="M216.5,215c-1,0.7-2.2,1.4-3.4,2.2c-5.8,3.3-11.2,4.9-11.2,4.9s4-3.9,9.9-7.3c1.2-0.7,2.4-1.3,3.6-1.9
			c-2.8-0.5-8.4-1.2-13.1,1.5c-6.4,3.7-8.4,12.2-8.4,12.2s8.4,2.6,14.8-1.2C213.2,222.9,215.6,217.7,216.5,215"/>
		<path class="st2" d="M276.3,177.8c1.1-0.7,2.2-1.4,3.4-2.2c5.8-3.3,11.2-4.9,11.2-4.9s-4,3.9-9.9,7.2c-1.2,0.7-2.4,1.3-3.6,1.9
			c2.8,0.5,8.4,1.2,13.1-1.5c6.4-3.7,8.4-12.2,8.4-12.2s-8.4-2.6-14.8,1.2C279.5,169.9,277.2,175.1,276.3,177.8"/>
		<path class="st2" d="M221.4,156.3c-1-1.4-1.9-2.9-2.9-4.6c-4.5-7.8-6.6-15-6.6-15s5.2,5.4,9.7,13.2c1,1.6,1.8,3.3,2.5,4.8
			c0.7-3.7,1.5-11.3-2.1-17.6c-5-8.6-16.4-11.3-16.4-11.3s-3.4,11.2,1.6,19.9C210.8,152,217.8,155.1,221.4,156.3"/>
		<path class="st2" d="M271.4,236.5c1,1.4,1.9,2.9,2.9,4.6c4.5,7.8,6.6,15,6.6,15s-5.2-5.4-9.7-13.2c-0.9-1.7-1.8-3.3-2.5-4.8
			c-0.7,3.7-1.5,11.3,2.1,17.6c5,8.6,16.4,11.3,16.4,11.3s3.4-11.3-1.6-19.9C282,240.8,274.9,237.7,271.4,236.5"/>
		<path class="st2" d="M193.8,198.2c-9,0-16.3-1.8-16.3-1.8s7.3-1.8,16.3-1.8c1.9,0,3.7,0.1,5.4,0.2c-2.9-2.5-9.1-7-16.3-7
			c-9.9,0-18,8.6-18,8.6s8.1,8.6,18,8.6c7.2,0,13.4-4.5,16.3-7C197.5,198.1,195.7,198.2,193.8,198.2"/>
		<path class="st2" d="M309.9,187.8c-7.2,0-13.4,4.5-16.3,7c1.7-0.1,3.5-0.2,5.4-0.2c9,0,16.3,1.8,16.3,1.8s-7.3,1.8-16.3,1.8
			c-1.9,0-3.7-0.1-5.4-0.2c2.9,2.5,9,7,16.3,7c9.9,0,18-8.6,18-8.6S319.8,187.8,309.9,187.8"/>
		<path class="st2" d="M221.6,242.9c-4.5,7.8-9.7,13.2-9.7,13.2s2.1-7.2,6.6-15c1-1.6,1.9-3.1,2.9-4.6c-3.6,1.2-10.6,4.3-14.2,10.6
			c-5,8.6-1.6,19.9-1.6,19.9s11.5-2.7,16.4-11.3c3.6-6.3,2.8-13.9,2.1-17.6C223.4,239.6,222.6,241.2,221.6,242.9"/>
		<path class="st2" d="M271.1,149.9c4.5-7.8,9.7-13.2,9.7-13.2s-2.1,7.2-6.6,15c-0.9,1.6-1.9,3.2-2.9,4.6
			c3.6-1.2,10.6-4.3,14.2-10.6c5-8.6,1.6-19.9,1.6-19.9s-11.5,2.7-16.4,11.3c-3.6,6.3-2.8,13.9-2.1,17.6
			C269.4,153.2,270.2,151.6,271.1,149.9"/>
	</g>
	<g>
		<polygon class="st1" points="35.8,381.5 63.4,381.5 63.4,385.8 35.8,385.8 35.8,408.5 67.1,408.5 67.1,412.7 31.4,412.7 31.4,355 
			67.1,355 67.1,359.1 35.8,359.1 		"/>
		<path class="st1" d="M106.3,401.4c0,7-5.4,12-15.8,12c-5.7,0-10.2-1.4-13.6-3.1v-4.7c4,2.1,8.5,3.4,13.5,3.4
			c6.6,0,11.5-2.5,11.5-7.6c0-13-24.7-5.6-24.7-20.9c0-6.2,4.2-12.1,14.8-12.1c4.7,0,8.6,1.3,11.8,2.6v4.4
			c-2.8-1.3-6.6-2.7-11.3-2.7c-5.7,0-10.8,2.2-10.8,7.8C81.6,391.1,106.3,384.5,106.3,401.4"/>
		<path class="st1" d="M137.1,408.3v4.2c-1.7,0.4-3.7,0.8-5.8,0.8c-3.3,0-11.4-0.4-11.4-11.2v-29h-7v-3.9h7v-12.3h4.5v12.3h12.6v3.9
			h-12.6v28.8c0,5.9,3.4,7.3,7.4,7.3C133.9,409.2,135.6,408.8,137.1,408.3"/>
		<path class="st1" d="M146.9,354.5h4.9v6.6h-4.9L146.9,354.5z M147.2,369.2h4.4v43.5h-4.4V369.2z"/>
		<rect x="165.9" y="352.4" class="st1" width="4.5" height="60.3"/>
		<path class="st1" d="M223.1,390.9c0,18.5-11,22.5-20.4,22.5s-20.4-4-20.4-22.5c0-18.5,11-22.5,20.4-22.5S223.1,372.4,223.1,390.9
			 M218.7,390.9c0-13.7-6.4-18.4-16-18.4c-9.5,0-16,4.7-16,18.4s6.5,18.4,16,18.4C212.4,409.3,218.7,404.6,218.7,390.9"/>
		<path class="st3" d="M299,398c0,9.1-6.8,15.5-20.2,15.5c-7.4,0-13.2-1.8-17.6-3.9v-4.8c4,2.2,9.6,4.3,17.2,4.3
			c9.1,0,16-3.5,16-11.1c0-18.2-32.9-8.4-32.9-28.3c0-8,5.3-15.6,19-15.6c6.1,0,11.2,1.5,15.4,3.5v4.6c-3.8-2-8.9-3.7-14.9-3.7
			c-9.9,0-14.9,4.3-14.9,11.2C266,384.8,299,376,299,398"/>
		<path class="st3" d="M345.2,386.7V400c0,11.8-12.1,13.4-17.6,13.4c-5.7,0-18.1-1.8-18.1-13.6c0-13.6,16.8-14.1,20.8-14.1
			c5.8,0,9,0.6,10.4,0.9c0-9.2-4.5-13.7-14.4-13.7c-5.7,0-10.3,1.3-12.4,2v-4.3c3.2-1.1,7.7-2.1,12.7-2.1
			C339.6,368.5,345.2,374.8,345.2,386.7 M340.8,390.6c-1.2-0.2-5.1-0.8-11-0.8c-5.5,0-15.9,1.3-15.9,10c0,8,8.3,9.5,13.7,9.5
			c5.3,0,13.2-1.4,13.2-9.3L340.8,390.6L340.8,390.6z"/>
		<rect x="358.5" y="352.4" class="st3" width="4.5" height="60.3"/>
		<path class="st3" d="M408.4,369.2h4.5v25.5c0,12-6.6,18.7-18.1,18.7c-11.6,0-18.1-6.6-18.1-18.7v-25.5h4.5v25.8
			c0,9.6,4.5,14.4,13.6,14.4c9,0,13.6-4.8,13.6-14.4L408.4,369.2L408.4,369.2z"/>
		<path class="st3" d="M444.6,368.5c4.4,0,8.6,0.7,12.4,2.1v-18.1h4.4v47.5c0,3.3-1.5,13.6-17.4,13.6c-7.4,0-19.3-3-19.3-22.9
			C424.7,372.3,435.3,368.5,444.6,368.5 M444,409.3c9.7,0,13-4.7,13-9.2v-25c-3.7-1.5-8-2.4-12.4-2.4c-9.5,0-15.4,4.6-15.4,18
			C429.2,407.2,437.8,409.3,444,409.3"/>
	</g>
</g>
</svg>
