<?xml version="1.0" encoding="utf-8"?>
<!-- Generator: Adobe Illustrator 24.1.2, SVG Export Plug-In . SVG Version: 6.00 Build 0)  -->
<svg version="1.1" id="Capa_1" xmlns="http://www.w3.org/2000/svg" xmlns:xlink="http://www.w3.org/1999/xlink" x="0px" y="0px"
	 viewBox="0 0 500 500" style="enable-background:new 0 0 500 500;" xml:space="preserve">
<style type="text/css">
	.st0{fill:#777777;}
	.st1{fill:url(#SVGID_1_);}
	.st2{fill:#920004;}
</style>
<g>
	<g>
		<path class="st0" d="M15.4,412.7l7.4-49.8h-9.5l1.2-7.7h27.3l-1.2,7.7H31l-7.4,49.8H15.4z"/>
		<path class="st0" d="M35.4,412.7l8.6-57.5h8.2l-8.6,57.5H35.4z"/>
		<path class="st0" d="M48.3,412.7l8.6-57.5h24.5l-1.2,7.7H63.9l-2.5,16.9h14.2l-1.2,7.7H60.2l-2.5,16.9H74l-1.3,8.2L48.3,412.7
			L48.3,412.7z"/>
		<path class="st0" d="M76.3,412.7l8.6-57.5h7.9l7.3,34.6h0.1l5.2-34.6h8.2l-8.6,57.5h-7.7l-7.5-34.6h-0.1l-5.2,34.6
			C84.6,412.7,76.3,412.7,76.3,412.7z"/>
		<path class="st0" d="M109.2,412.7l8.6-57.5H130c4.7,0,8.2,1.3,10.2,3.9c2.1,2.6,2.7,6.3,2,11l-4,26.9c-0.8,5.4-2.7,9.3-5.7,11.9
			c-3,2.6-7,3.8-11.8,3.8L109.2,412.7L109.2,412.7L109.2,412.7z M124.8,363l-6.3,42h3.8c2.3,0,4-0.6,5.2-1.7c1.1-1.2,1.9-3,2.2-5.4
			l4.1-27.7c0.3-2.2,0.1-4-0.6-5.2c-0.7-1.3-2.3-1.9-4.7-1.9L124.8,363L124.8,363L124.8,363z"/>
		<path class="st0" d="M135.7,412.7l21.4-57.5h6.8l4.3,57.5H160l-0.6-12.3h-11.2l-4.3,12.3C144,412.7,135.7,412.7,135.7,412.7z
			 M159.1,392.7l-0.9-20.8H158l-7.1,20.8C150.9,392.7,159.1,392.7,159.1,392.7z"/>
		<path class="st0" d="M179.3,412.7l8.6-57.5H200c4.7,0,8.2,1.3,10.2,3.9c2.1,2.6,2.7,6.3,2,11l-4,26.9c-0.8,5.4-2.7,9.3-5.7,11.9
			c-3,2.6-7,3.8-11.8,3.8L179.3,412.7L179.3,412.7z M194.9,363l-6.3,42h3.8c2.3,0,4-0.6,5.2-1.7c1.1-1.2,1.9-3,2.2-5.4l4.1-27.7
			c0.3-2.2,0.1-4-0.6-5.2c-0.7-1.3-2.3-1.9-4.7-1.9L194.9,363L194.9,363L194.9,363z"/>
		<path class="st0" d="M208.8,412.7l8.6-57.5h24.5l-1.2,7.7h-16.3l-2.5,16.9h14.2l-1.2,7.7h-14.2l-2.4,16.9h16.3l-1.3,8.2
			C233.3,412.7,208.8,412.7,208.8,412.7z"/>
		<path class="st0" d="M274.2,396.4l-0.6,3.6c-0.3,1.7-0.8,3.5-1.7,5c-0.9,1.6-2,3-3.4,4.3s-2.9,2.2-4.6,2.9s-3.5,1.1-5.3,1.1
			c-1.5,0-3.1-0.2-4.7-0.6c-1.5-0.4-2.9-1.2-4-2.2c-1.1-1-2-2.4-2.6-4.2c-0.6-1.7-0.7-3.8-0.3-6.5l4.7-31.6c0.3-1.9,0.8-3.6,1.7-5.2
			c0.9-1.6,2-3,3.3-4.2c1.4-1.2,2.9-2.1,4.7-2.8c1.7-0.7,3.6-1,5.6-1c3.9,0,6.8,1.3,8.8,3.8c1,1.3,1.7,2.7,2.2,4.4s0.5,3.6,0.2,5.5
			l-0.5,3.2h-8.2l0.4-2.7c0.2-1.6,0-3-0.8-4.2s-1.9-1.7-3.5-1.7c-2,0-3.5,0.6-4.4,1.9c-0.8,1.3-1.5,2.9-1.7,4.8l-4.4,29.4
			c-0.3,1.7-0.1,3.1,0.5,4.2c0.6,1.1,1.8,1.7,3.7,1.7c0.6,0,1.1-0.1,1.8-0.3c0.6-0.2,1.3-0.5,1.9-0.9c0.6-0.4,1-1,1.5-1.7
			c0.4-0.8,0.8-1.7,0.9-2.9l0.4-2.9L274.2,396.4L274.2,396.4z"/>
		<path class="st0" d="M271.5,412.7l21.4-57.5h6.8l4.3,57.5h-8.2l-0.6-12.3h-11.2l-4.3,12.3C279.8,412.7,271.5,412.7,271.5,412.7z
			 M294.9,392.7l-0.9-20.8h-0.1l-7.1,20.8H294.9z"/>
		<path class="st0" d="M306.5,412.7l8.6-57.5h7.9l6.1,30.5h0.1l15.1-30.5h8l-8.6,57.5h-8.2l5.2-35h-0.1l-11.8,24.7h-4.1l-4.4-24.7
			h-0.1l-5.2,35C314.9,412.7,306.5,412.7,306.5,412.7z"/>
		<path class="st0" d="M348.4,412.7l8.6-57.5h8.2l-8.6,57.5H348.4z"/>
		<path class="st0" d="M367.4,368.8c0.3-2.3,1-4.4,2.1-6.1c1-1.7,2.4-3.3,3.9-4.5c1.5-1.1,3.1-2,4.8-2.6c1.7-0.6,3.4-0.9,5.1-0.9
			c1.7,0,3.3,0.3,4.8,0.9c1.5,0.6,2.9,1.5,4.1,2.6c1.1,1.2,2,2.6,2.5,4.5c0.6,1.7,0.6,3.8,0.3,6.1l-4.5,30.3c-0.3,2.4-1,4.5-2.2,6.2
			c-1,1.7-2.3,3.1-3.8,4.3c-1.5,1.2-3.1,2.1-4.9,2.6s-3.4,0.9-5.1,0.9c-1.7,0-3.3-0.3-4.8-0.9c-1.5-0.6-2.9-1.5-4-2.6
			c-1.2-1.1-2-2.6-2.6-4.3c-0.6-1.7-0.6-3.8-0.3-6.2L367.4,368.8z M371.2,399.1c-0.3,2,0.1,3.5,1,4.4c1,1,2.2,1.4,3.7,1.4
			c1.5,0,2.9-0.5,4.1-1.4c1.3-1,2-2.4,2.3-4.4l4.5-30.4c0.3-2-0.1-3.5-1-4.4c-1-1-2.2-1.4-3.7-1.4c-1.5,0-2.9,0.5-4.1,1.4
			c-1.3,1-2,2.4-2.3,4.4L371.2,399.1z"/>
		<path class="st0" d="M392.2,412.7l8.6-57.5h7.9l7.3,34.6h0.1l5.2-34.6h8.2l-8.6,57.5h-7.7l-7.5-34.6h-0.1l-5.2,34.6
			C400.5,412.7,392.2,412.7,392.2,412.7z"/>
		<path class="st0" d="M425.2,412.7l8.6-57.5h24.5l-1.2,7.7h-16.3l-2.5,16.9h14.2l-1.2,7.7h-14.2l-2.5,16.9h16.3l-1.3,8.2
			L425.2,412.7L425.2,412.7z"/>
		<path class="st0" d="M486.2,371.8h-8.2l0.3-1.9c0.3-1.9,0.1-3.5-0.6-4.9s-2.1-2.1-4.2-2.1c-1.1,0-2.1,0.2-2.9,0.6
			c-0.8,0.4-1.4,1-2,1.6c-0.6,0.7-1,1.5-1.3,2.4c-0.3,0.9-0.5,1.8-0.6,2.8c-0.1,1.1-0.3,2.1-0.3,2.9c0,0.8,0.1,1.4,0.3,2
			c0.2,0.6,0.6,1.1,1.2,1.5c0.6,0.4,1.3,0.8,2.4,1.3l5.9,2.5c1.7,0.7,3.1,1.5,4,2.4c1,1,1.7,2,2.2,3.3c0.4,1.3,0.6,2.8,0.6,4.4
			c0,1.7-0.2,3.5-0.5,5.6c-0.3,2.4-0.9,4.7-1.7,6.8c-0.8,2.1-1.8,3.8-3.1,5.3c-1.3,1.5-3,2.7-4.9,3.6s-4.3,1.3-6.9,1.3
			c-2,0-3.8-0.3-5.4-1c-1.6-0.7-2.9-1.7-4-2.9c-1-1.3-1.8-2.6-2.3-4.3c-0.5-1.7-0.6-3.4-0.3-5.4l0.5-3.1h8.2l-0.4,2.6
			c-0.2,1.5,0,2.9,0.7,4.1c0.7,1.2,2.1,1.8,4.2,1.8c1.4,0,2.5-0.2,3.3-0.6c0.8-0.4,1.5-1,2.1-1.7c0.6-0.8,0.9-1.7,1.2-2.7
			c0.2-1,0.4-2.2,0.6-3.5c0.2-1.5,0.3-2.7,0.4-3.7s-0.1-1.7-0.3-2.4c-0.3-0.6-0.7-1-1.3-1.5c-0.6-0.3-1.3-0.8-2.3-1.2l-5.5-2.4
			c-3.3-1.5-5.4-3.3-6.3-5.8c-0.8-2.4-1-5.4-0.5-9c0.3-2.2,0.9-4.2,1.8-6.1c0.9-2,2-3.6,3.4-5c1.3-1.4,2.9-2.5,4.8-3.3
			c1.9-0.8,4-1.3,6.4-1.3c2,0,3.8,0.3,5.4,1.1c1.6,0.8,2.9,1.7,4,3c2.1,2.6,2.9,5.6,2.4,8.8L486.2,371.8z"/>
	</g>
	<g>
		<g>
			
				<linearGradient id="SVGID_1_" gradientUnits="userSpaceOnUse" x1="251.4882" y1="-37.2733" x2="251.4882" y2="187.3817" gradientTransform="matrix(1 0 0 1 0 175.8)">
				<stop  offset="0" style="stop-color:#B70004"/>
				<stop  offset="1" style="stop-color:#740B0C"/>
			</linearGradient>
			<circle class="st1" cx="251.5" cy="202.8" r="58.6"/>
		</g>
		<g>
			<path class="st2" d="M342.3,202.8h-19.1c0-20.9-9-40.5-24.8-54.3c-13.1-11.3-29.7-17.5-46.9-17.5c-19.1,0-37.2,7.4-50.8,21.1
				c-13.6,13.6-21.1,31.5-21.1,50.8h-18.9c0-24.2,9.4-47.1,26.5-64.2s40-26.5,64.2-26.5c21.8,0,43,7.8,59.5,22.1
				C330.9,151.3,342.3,176.4,342.3,202.8z"/>
		</g>
		<g>
			<path class="st2" d="M251.5,293.6c-24.2,0-47.1-9.4-64.2-26.5l13.4-13.4c13.6,13.6,31.5,21.1,50.8,21.1
				c15.2,0,29.7-4.8,42.1-13.6l11.1,15.4C289.2,287.6,270.8,293.6,251.5,293.6z"/>
		</g>
		<g>
			<path class="st2" d="M251.5,318.9c-31,0-60.2-12-82.1-34c-21.9-21.9-34-51.1-34-82.1s12-60.2,34-82.1s51.1-34,82.1-34
				c36.5,0,71.3,17.5,93.3,46.7l-15.2,11.3c-18.6-24.8-46.9-39.1-77.9-39.1c-26,0-50.3,10.1-68.7,28.5s-28.5,42.8-28.5,68.7
				s10.1,50.3,28.5,68.7c18.4,18.4,42.8,28.5,68.7,28.5c23,0,45.3-8.1,62.8-23.2l12.4,14.5C305.8,309.2,279.1,318.9,251.5,318.9z"/>
		</g>
	</g>
</g>
</svg>
