<svg id="Capa_1" data-name="Capa 1" xmlns="http://www.w3.org/2000/svg" viewBox="0 0 500 500"><defs><style>.cls-1{fill:#1d2b33;}.cls-2{fill:#828383;}.cls-3{fill:#3061ac;isolation:isolate;}</style></defs><polygon class="cls-1" points="54.99 294.29 68.22 294.29 90.71 334.98 113.2 294.29 126.14 294.29 126.14 361.15 115.35 361.15 115.35 309.91 95.63 345.39 85.5 345.39 65.78 309.91 65.78 361.15 54.99 361.15 54.99 294.29"/><path class="cls-1" d="M161,362.34A25.75,25.75,0,0,1,147.8,359a23.24,23.24,0,0,1-8.85-9.2,27.8,27.8,0,0,1-3.18-13.47,28.78,28.78,0,0,1,3.11-13.62,23.18,23.18,0,0,1,8.62-9.27,24,24,0,0,1,12.68-3.35,21,21,0,0,1,20.15,12.8,33.93,33.93,0,0,1,2.77,14.23v3H146.51a15.85,15.85,0,0,0,4.86,9.65,14.43,14.43,0,0,0,10,3.51,21.83,21.83,0,0,0,8.31-1.44,21.16,21.16,0,0,0,6.54-4.34l5.73,7q-8.55,7.83-21,7.83m7.88-39.66a11.9,11.9,0,0,0-8.93-3.46,12.31,12.31,0,0,0-8.92,3.57,16.5,16.5,0,0,0-4.56,9.51h26.27c-.33-4.08-1.61-7.27-3.87-9.58"/><path class="cls-1" d="M196.15,320.17h-10v-8.83h9.93V296.73h10.41v14.61h15.09v8.83H206.56v22.4c0,3.72.63,6.38,1.91,8s3.45,2.38,6.54,2.39a31.37,31.37,0,0,0,3.49-.17c1-.11,2-.26,3.15-.46V361a30.28,30.28,0,0,1-4,.9,33,33,0,0,1-4.66.33q-16.86,0-16.86-18.44Z"/><path class="cls-1" d="M275.9,361.11H265.68v-7a18.54,18.54,0,0,1-6.93,6.05A22.22,22.22,0,0,1,237.53,359a23.11,23.11,0,0,1-8-9.27,30.23,30.23,0,0,1-2.91-13.49,29.68,29.68,0,0,1,3-13.45,22.89,22.89,0,0,1,8.2-9.22,21.71,21.71,0,0,1,12-3.35,20.76,20.76,0,0,1,9.17,2,18.11,18.11,0,0,1,6.73,5.61v-6.4H275.9Zm-10.41-32.37a14.24,14.24,0,0,0-5.27-6.71,14.41,14.41,0,0,0-8.34-2.46A13.51,13.51,0,0,0,241.23,324q-4,4.46-4,12.13t3.82,12.17a12.83,12.83,0,0,0,10.36,4.47,15.35,15.35,0,0,0,8.6-2.49,14,14,0,0,0,5.44-6.68Z"/><path class="cls-2" d="M344.39,360.92h5.94l-23.84-68.51h-9l-23.88,68.51h6l6.39-18h31.89Zm-22.44-65,14.11,41.76h-28.2Zm38.9,52.15c0,9.07,4.41,13.89,14.18,13.89a28.81,28.81,0,0,0,16.9-5.76l.28,4.73h5.48V289.53l-6,.81v21.1a75,75,0,0,0-15.43-1.63c-11.33,0-15.43,6.26-15.43,15.43Zm30.86,2.16c-4.73,3.82-10.08,6.38-16.24,6.38-6.79,0-8.67-2.75-8.67-8.54V325.24c0-6.79,2.69-10.08,9.26-10.08a79,79,0,0,1,15.65,1.72Zm53.3-1.94c0-9.36-.81-11.74-15.55-15.43-9.24-2.38-9.67-3.1-9.67-10,0-5.44,1.25-7.7,10-7.7a77.92,77.92,0,0,1,14,1.44l.63-5.07a57.22,57.22,0,0,0-14.21-1.72c-12.34,0-16.34,4.51-16.34,12.83,0,9.17,1,12.27,13.58,15.25C438.85,340.55,439,341.3,439,348.5c0,6.35-1.84,8.1-11.11,8.1a50.19,50.19,0,0,1-13.27-2l-1,4.82A43.07,43.07,0,0,0,428.33,362C441.73,362,445,357.32,445,348.28Z"/><path class="cls-3" d="M304.25,117.88c-18.47,0-32.91,13.92-46,31.59l-.55-.69-.64-.8-1.66-2-.39-.47-2-2.34-.57-.63c-.49-.57-1-1.13-1.48-1.67l-.6-.67c-.64-.69-1.27-1.37-1.9-2l-.14-.15c-.63-.65-1.25-1.27-1.86-1.88l-.59-.58-1.45-1.38-.54-.5c-.63-.59-1.26-1.16-1.89-1.7l-.37-.32c-.52-.44-1-.88-1.56-1.3l-.6-.48c-.5-.4-1-.79-1.49-1.16l-.43-.34c-.63-.46-1.25-.91-1.87-1.34l-.49-.33c-.49-.33-1-.65-1.45-1l-.58-.37c-.56-.35-1.12-.68-1.68-1l-.22-.14c-.62-.35-1.25-.69-1.88-1l-.55-.28c-.47-.24-.95-.47-1.43-.69l-.54-.25c-.63-.28-1.26-.55-1.89-.8l-.23-.09c-.56-.22-1.13-.43-1.7-.62l-.58-.2L221,119.8l-.47-.14c-.64-.18-1.29-.35-1.93-.5l-.43-.09-1.56-.33-.59-.11c-.55-.1-1.11-.18-1.66-.26l-.34-.05c-.66-.09-1.32-.16-2-.22l-.53,0c-.52,0-1-.08-1.56-.1l-.58,0c-.68,0-1.36-.05-2-.05-36.65,0-64.74,47.7-64.74,98.19,0,31.59,15.29,51.52,40.89,51.52,18.43,0,31.68-8.68,55.24-49.87,0,0,9.82-17.33,16.58-29.28,2.36,3.83,4.85,7.93,7.47,12.35l1.66,2.79h0l9.4,15.81c21.52,36,33.51,48.21,55.24,48.21,24.95,0,38.83-20.2,38.83-52.45C367.85,162.28,339.13,117.88,304.25,117.88Zm-83.53,88.69c-19.1,29.94-25.71,36.66-36.34,36.66-10.95,0-17.45-9.61-17.45-26.74,0-36.66,18.27-74.14,40.06-74.14h0c.45,0,.9,0,1.34,0l.38,0,1,.08.34,0q.66.07,1.32.18l.19,0,1.13.22.37.09,1,.27.27.07c.44.13.87.27,1.3.42l.28.11c.35.12.7.26,1,.4l.37.16c.39.17.78.34,1.17.54a.52.52,0,0,1,.13.06c.44.21.88.45,1.32.69l.31.18c.35.2.7.41,1.06.64l.33.2c.89.57,1.79,1.21,2.69,1.91l.33.25c.38.3.76.6,1.14.92.08.08.17.14.26.22.47.4.94.81,1.42,1.25l.1.09c.44.41.89.83,1.33,1.26l.31.3c.44.43.88.88,1.33,1.35l.12.12c.51.54,1,1.09,1.54,1.66l.16.17c.46.51.93,1,1.4,1.59l.26.3q1.57,1.85,3.24,4l.18.24,1.55,2,.18.24c1.16,1.54,2.35,3.16,3.57,4.89l.17.24.74,1.06C229.41,192.78,220.72,206.57,220.72,206.57Zm108.82,36.66c-10.87,0-16.07-7.19-36.73-40.42l-13.21-22c0-.08-.09-.15-.13-.22q-5.3-8.59-10.17-15.84c11.9-18.37,21.72-27.52,33.4-27.52,24.26,0,43.67,35.72,43.67,79.6C346.37,233.53,340.9,243.23,329.54,243.23Z"/></svg>