<?xml version="1.0" encoding="utf-8"?>
<!-- Generator: Adobe Illustrator 24.1.2, SVG Export Plug-In . SVG Version: 6.00 Build 0)  -->
<svg version="1.1" id="Capa_1" xmlns="http://www.w3.org/2000/svg" xmlns:xlink="http://www.w3.org/1999/xlink" x="0px" y="0px"
	 viewBox="0 0 500 500" style="enable-background:new 0 0 500 500;" xml:space="preserve">
<style type="text/css">
	.st0{fill:#549E42;}
	.st1{fill:#343434;}
	.st2{fill:url(#path-2_2_);}
	.st3{filter:url(#Adobe_OpacityMaskFilter);}
	.st4{fill:#FFFFFF;}
	.st5{mask:url(#mask-3_4_);}
	.st6{fill:none;}
	.st7{fill:url(#SVGID_1_);}
	.st8{filter:url(#Adobe_OpacityMaskFilter_1_);}
	.st9{mask:url(#mask-3_3_);}
	.st10{fill-rule:evenodd;clip-rule:evenodd;fill:url(#SVGID_2_);}
	.st11{fill-rule:evenodd;clip-rule:evenodd;fill:url(#SVGID_3_);}
	.st12{fill-rule:evenodd;clip-rule:evenodd;fill:url(#SVGID_4_);}
	.st13{fill-rule:evenodd;clip-rule:evenodd;fill:url(#SVGID_5_);}
	.st14{fill-rule:evenodd;clip-rule:evenodd;fill:url(#SVGID_6_);}
	.st15{fill:#2E2815;}
	.st16{fill:#DF4C36;}
	.st17{fill:#56C2DE;}
	.st18{fill:#E44E28;}
	.st19{fill:#EC662B;}
	.st20{fill:#EBEBEB;}
	.st21{fill:#E8A50A;}
	.st22{fill:#F3C100;}
	.st23{fill:#F1F1F2;}
	.st24{font-family:'Poppins-Bold';}
	.st25{font-size:38.3699px;}
	.st26{fill:#3655A2;}
	.st27{fill:#3C61AB;}
</style>
<g>
	<g>
		<polygon class="st21" points="381.2,128.6 250,128.6 250,128.6 118.8,128.6 143.4,395.3 250,425.5 250,425.5 250,425.5 250,425.5 
			250,425.5 356.6,395.3 		"/>
		<polygon class="st22" points="250,150.3 250,402.9 250,402.9 336.3,378.5 357.3,150.3 		"/>
		<polygon class="st4" points="318.7,183 185.9,183 176.7,282.9 176.9,282.3 289.7,282.3 286,324.5 250,334.9 213.5,324.3 
			211.3,298.8 178.1,298.8 182.9,349.9 250,368.9 317.1,349.9 326.4,249.6 206.7,249.6 208.2,216.2 291.3,216.2 292.5,235.3 
			326,235.3 		"/>
		<g>
			<path class="st23" d="M250,183h-64.1l-9.2,99.9l0.2-0.6H250v-32.7h-38.7l1.5-33.4H250V183z M211.3,298.8h-33.2l4.7,51.1l67.1,19
				v-34l-36.5-10.5L211.3,298.8z"/>
		</g>
	</g>
	<text transform="matrix(1 0 0 1 128.7334 107.2)" class="st24 st25">JAVASCRIPT</text>
</g>
</svg>
