<?xml version="1.0" encoding="utf-8"?>
<!-- Generator: Adobe Illustrator 24.1.2, SVG Export Plug-In . SVG Version: 6.00 Build 0)  -->
<svg version="1.1" id="Capa_1" xmlns="http://www.w3.org/2000/svg" xmlns:xlink="http://www.w3.org/1999/xlink" x="0px" y="0px"
	 viewBox="0 0 500 500" style="enable-background:new 0 0 500 500;" xml:space="preserve">
<style type="text/css">
	.st0{fill:#549E42;}
	.st1{fill:#343434;}
	.st2{fill:url(#path-2_2_);}
	.st3{filter:url(#Adobe_OpacityMaskFilter);}
	.st4{fill:#FFFFFF;}
	.st5{mask:url(#mask-3_4_);}
	.st6{fill:none;}
	.st7{fill:url(#SVGID_1_);}
	.st8{filter:url(#Adobe_OpacityMaskFilter_1_);}
	.st9{mask:url(#mask-3_3_);}
	.st10{fill-rule:evenodd;clip-rule:evenodd;fill:url(#SVGID_2_);}
	.st11{fill-rule:evenodd;clip-rule:evenodd;fill:url(#SVGID_3_);}
	.st12{fill-rule:evenodd;clip-rule:evenodd;fill:url(#SVGID_4_);}
	.st13{fill-rule:evenodd;clip-rule:evenodd;fill:url(#SVGID_5_);}
	.st14{fill-rule:evenodd;clip-rule:evenodd;fill:url(#SVGID_6_);}
	.st15{fill:#2E2815;}
	.st16{fill:#DF4C36;}
	.st17{fill:#56C2DE;}
	.st18{fill:#E44E28;}
	.st19{fill:#EC662B;}
	.st20{fill:#EBEBEB;}
	.st21{font-family:'Poppins-Bold';}
	.st22{font-size:38.3699px;}
	.st23{fill:#E8A50A;}
	.st24{fill:#F3C100;}
	.st25{fill:#F1F1F2;}
	.st26{fill:#3655A2;}
	.st27{fill:#3C61AB;}
</style>
<g>
	<g>
		<polygon class="st18" points="143,392.7 119.1,125.6 380.9,125.6 357,392.7 249.8,422.4 		"/>
		<polygon class="st19" points="250,399.7 336.6,375.7 357,147.4 250,147.4 		"/>
		<polygon class="st20" points="250,246.5 206.6,246.5 203.6,212.9 250,212.9 250,180.2 249.9,180.2 167.8,180.2 168.6,189 
			176.7,279.2 250,279.2 		"/>
		<polygon class="st20" points="250,331.6 249.9,331.6 213.4,321.8 211,295.6 193.3,295.6 178.1,295.6 182.7,347.1 249.8,365.7 
			250,365.7 		"/>
		<polygon class="st4" points="249.9,246.5 249.9,279.2 290.2,279.2 286.4,321.7 249.9,331.6 249.9,365.7 317.1,347.1 317.5,341.5 
			325.2,255.3 326,246.5 317.2,246.5 		"/>
		<polygon class="st4" points="249.9,180.2 249.9,200.5 249.9,212.9 249.9,212.9 328.9,212.9 328.9,212.9 329,212.9 329.7,205.6 
			331.2,189 332,180.2 		"/>
	</g>
	<g>
		<text transform="matrix(1 0 0 1 185.4049 110.3316)" class="st21 st22">HTML5</text>
	</g>
</g>
</svg>
