<?xml version="1.0" encoding="utf-8"?>
<!-- Generator: Adobe Illustrator 24.1.2, SVG Export Plug-In . SVG Version: 6.00 Build 0)  -->
<svg version="1.1" id="Capa_1" xmlns="http://www.w3.org/2000/svg" xmlns:xlink="http://www.w3.org/1999/xlink" x="0px" y="0px"
	 viewBox="0 0 500 500" style="enable-background:new 0 0 500 500;" xml:space="preserve">
<style type="text/css">
	.st0{fill:#549E42;}
	.st1{fill:#343434;}
	.st2{fill:url(#path-2_2_);}
	.st3{filter:url(#Adobe_OpacityMaskFilter);}
	.st4{fill:#FFFFFF;}
	.st5{mask:url(#mask-3_4_);}
	.st6{fill:none;}
	.st7{fill:url(#SVGID_1_);}
	.st8{filter:url(#Adobe_OpacityMaskFilter_1_);}
	.st9{mask:url(#mask-3_3_);}
	.st10{fill-rule:evenodd;clip-rule:evenodd;fill:url(#SVGID_2_);}
	.st11{fill-rule:evenodd;clip-rule:evenodd;fill:url(#SVGID_3_);}
	.st12{fill-rule:evenodd;clip-rule:evenodd;fill:url(#SVGID_4_);}
	.st13{fill-rule:evenodd;clip-rule:evenodd;fill:url(#SVGID_5_);}
	.st14{fill-rule:evenodd;clip-rule:evenodd;fill:url(#SVGID_6_);}
	.st15{fill:#2E2815;}
	.st16{fill:#DF4C36;}
	.st17{fill:#56C2DE;}
	.st18{fill:#E44E28;}
	.st19{fill:#EC662B;}
	.st20{fill:#EBEBEB;}
	.st21{fill:#E8A50A;}
	.st22{fill:#F3C100;}
	.st23{fill:#F1F1F2;}
	.st24{fill:#3655A2;}
	.st25{fill:#3C61AB;}
</style>
<g>
	<path class="st0" d="M248,360.5c-1.2,0-2.4-0.3-3.4-0.9l-10.8-6.4c-1.6-0.9-0.8-1.2-0.3-1.4c2.2-0.7,2.6-0.9,4.9-2.2
		c0.2-0.2,0.6-0.1,0.8,0.1l8.3,5c0.3,0.2,0.7,0.2,1,0l32.5-18.8c0.3-0.2,0.5-0.5,0.5-0.9v-37.6c0-0.4-0.2-0.7-0.5-0.9l-32.5-18.8
		c-0.3-0.2-0.7-0.2-1,0l-32.5,18.8c-0.3,0.2-0.5,0.6-0.5,0.9v37.6c0,0.3,0.2,0.7,0.5,0.9l8.9,5.1c4.8,2.4,7.8-0.4,7.8-3.3v-37.1
		c0-0.5,0.4-1,1-1h4.2c0.5,0,1,0.4,1,1v37.1c0,6.4-3.5,10.2-9.6,10.2c-1.9,0-3.3,0-7.5-2l-8.6-4.9c-2.1-1.2-3.4-3.5-3.4-6v-37.6
		c0-2.4,1.3-4.7,3.4-6l32.5-18.8c2-1.1,4.8-1.1,6.9,0l32.5,18.8c2.1,1.2,3.4,3.5,3.4,6v37.6c0,2.4-1.3,4.7-3.4,6l-32.5,18.8
		C250.4,360.2,249.2,360.5,248,360.5z M258.1,334.6c-14.3,0-17.2-6.5-17.2-12.1c0-0.5,0.4-1,1-1h4.2c0.5,0,0.9,0.3,0.9,0.8
		c0.7,4.3,2.5,6.4,11.2,6.4c6.9,0,9.8-1.5,9.8-5.2c0-2.1-0.8-3.7-11.5-4.7c-8.9-0.9-14.4-2.9-14.4-9.9c0-6.6,5.5-10.5,14.8-10.5
		c10.4,0,15.6,3.6,16.2,11.4c0,0.2-0.1,0.5-0.2,0.7c-0.2,0.2-0.4,0.3-0.7,0.3h-4.2c-0.4,0-0.8-0.3-0.9-0.7c-1-4.5-3.5-6-10.2-6
		c-7.5,0-8.4,2.6-8.4,4.6c0,2.4,1.1,3.1,11.2,4.4c10,1.3,14.8,3.2,14.8,10.2C274.3,330.5,268.4,334.6,258.1,334.6z"/>
	<path class="st1" d="M147.1,213.4c0-1.5-0.8-2.9-2.1-3.6l-34.6-19.9c-0.6-0.3-1.2-0.5-1.9-0.6h-0.3c-0.7,0-1.3,0.2-1.9,0.6
		l-34.6,19.9c-1.3,0.7-2.1,2.1-2.1,3.6l0.1,53.5c0,0.7,0.4,1.5,1.1,1.8c0.7,0.4,1.5,0.4,2,0L93.3,257c1.3-0.7,2.1-2.1,2.1-3.6v-25
		c0-1.5,0.8-2.9,2.1-3.6l8.7-5.1c0.7-0.4,1.4-0.6,2.1-0.6s1.5,0.2,2,0.6l8.7,5.1c1.3,0.7,2.1,2.1,2.1,3.6v25c0,1.5,0.8,2.9,2.1,3.6
		l20.6,11.7c0.7,0.4,1.5,0.4,2.1,0c0.7-0.3,1.1-1.1,1.1-1.8L147.1,213.4L147.1,213.4z"/>
	<path class="st1" d="M313.3,139.8c-0.7-0.3-1.5-0.3-2,0c-0.7,0.4-1.1,1.1-1.1,1.8v53c0,0.5-0.2,1-0.7,1.3c-0.5,0.2-1,0.2-1.5,0
		l-8.6-5c-1.3-0.7-2.9-0.7-4.2,0l-34.6,20c-1.3,0.7-2.1,2.1-2.1,3.6v39.9c0,1.5,0.8,2.9,2.1,3.6l34.6,20c1.3,0.7,2.9,0.7,4.2,0
		l34.6-20c1.3-0.7,2.1-2.1,2.1-3.6v-99.4c0-1.5-0.8-2.9-2.1-3.7L313.3,139.8L313.3,139.8z M310.1,241.2c0,0.4-0.2,0.7-0.5,0.9
		l-11.8,6.9c-0.3,0.2-0.7,0.2-1.1,0l-11.8-6.9c-0.3-0.2-0.5-0.6-0.5-0.9v-13.7c0-0.4,0.2-0.7,0.5-0.9l11.8-6.9
		c0.3-0.2,0.7-0.2,1.1,0l11.8,6.9c0.3,0.2,0.5,0.6,0.5,0.9V241.2L310.1,241.2z"/>
	<g transform="translate(401.047404, 70.501129)">
		<path class="st1" d="M27.3,156.7c1.3-0.7,2-2.1,2-3.6v-9.7c0-1.5-0.8-2.9-2-3.6L-7,119.9c-1.3-0.7-2.9-0.7-4.2,0l-34.6,20
			c-1.3,0.7-2.1,2.1-2.1,3.6v39.9c0,1.5,0.8,2.9,2.1,3.6l34.3,19.6c1.3,0.7,2.9,0.7,4.1,0L13.4,195c0.7-0.3,1.1-1.1,1.1-1.8
			c0-0.7-0.4-1.5-1.1-1.8l-34.7-20c-0.7-0.4-1.1-1.1-1.1-1.8v-12.5c0-0.7,0.4-1.5,1.1-1.8l10.8-6.2c0.7-0.4,1.5-0.4,2.1,0l10.8,6.2
			c0.7,0.4,1.1,1.1,1.1,1.8v9.8c0,0.7,0.4,1.5,1.1,1.8c0.7,0.4,1.5,0.4,2.1,0L27.3,156.7L27.3,156.7z"/>
		<path class="st0" d="M-9.6,154.8c0.2-0.2,0.6-0.2,0.8,0l6.6,3.8c0.2,0.2,0.4,0.4,0.4,0.7v7.7c0,0.3-0.2,0.6-0.4,0.7l-6.6,3.8
			c-0.2,0.2-0.6,0.2-0.8,0l-6.6-3.8c-0.2-0.2-0.4-0.4-0.4-0.7v-7.7c0-0.3,0.2-0.6,0.4-0.7L-9.6,154.8L-9.6,154.8z"/>
	</g>
	<g transform="translate(134.067720, 70.501129)">
		<g>
			
				<linearGradient id="path-2_2_" gradientUnits="userSpaceOnUse" x1="125.2923" y1="429.4297" x2="125.0075" y2="428.9197" gradientTransform="matrix(108.9878 0 0 -124.186 -13572.6084 53464)">
				<stop  offset="0" style="stop-color:#448840"/>
				<stop  offset="0.3288" style="stop-color:#428C3E"/>
				<stop  offset="0.6352" style="stop-color:#439637"/>
				<stop  offset="0.9319" style="stop-color:#41AA34"/>
				<stop  offset="1" style="stop-color:#46AC34"/>
			</linearGradient>
			<path id="path-2_1_" class="st2" d="M70.8,120.1c-1.3-0.7-2.9-0.7-4.2,0l-34.3,19.8c-1.3,0.7-2,2.1-2,3.6v39.7
				c0,1.5,0.8,2.9,2,3.6l34.3,19.8c1.3,0.7,2.9,0.7,4.2,0l34.3-19.8c1.3-0.7,2-2.1,2-3.6v-39.7c0-1.5-0.8-2.9-2-3.6L70.8,120.1
				L70.8,120.1z"/>
		</g>
		<defs>
			<filter id="Adobe_OpacityMaskFilter" filterUnits="userSpaceOnUse" x="30" y="119.5" width="77.5" height="87.7">
				<feColorMatrix  type="matrix" values="1 0 0 0 0  0 1 0 0 0  0 0 1 0 0  0 0 0 1 0"/>
			</filter>
		</defs>
		<mask maskUnits="userSpaceOnUse" x="30" y="119.5" width="77.5" height="87.7" id="mask-3_4_">
			<g class="st3">
				<path id="path-2_5_" class="st4" d="M70.8,120.1c-1.3-0.7-2.9-0.7-4.2,0l-34.3,19.8c-1.3,0.7-2,2.1-2,3.6v39.7
					c0,1.5,0.8,2.9,2,3.6l34.3,19.8c1.3,0.7,2.9,0.7,4.2,0l34.3-19.8c1.3-0.7,2-2.1,2-3.6v-39.7c0-1.5-0.8-2.9-2-3.6L70.8,120.1
					L70.8,120.1z"/>
			</g>
		</mask>
		<g class="st5">
			<path class="st6" d="M66.6,120.1l-34.4,19.8c-1.3,0.7-2.2,2.1-2.2,3.6v39.7c0,1,0.4,1.9,1.1,2.6l38.7-66.2
				C68.7,119.4,67.6,119.5,66.6,120.1L66.6,120.1z"/>
			<path class="st6" d="M69.9,207c0.3-0.1,0.7-0.2,1-0.4l34.4-19.8c1.3-0.7,2.1-2.1,2.1-3.6v-39.7c0-1.1-0.5-2.1-1.2-2.9L69.9,207
				L69.9,207z"/>
			
				<linearGradient id="SVGID_1_" gradientUnits="userSpaceOnUse" x1="125.0631" y1="429.1638" x2="125.8814" y2="429.6823" gradientTransform="matrix(106.4452 0 0 -124.1327 -13248.8232 53441.25)">
				<stop  offset="0.1376" style="stop-color:#448840"/>
				<stop  offset="0.4032" style="stop-color:#54A043"/>
				<stop  offset="0.7136" style="stop-color:#6AB64A"/>
				<stop  offset="0.9081" style="stop-color:#72B84D"/>
			</linearGradient>
			<path class="st7" d="M105.2,139.9l-34.5-19.8c-0.3-0.2-0.7-0.3-1.1-0.4L31,185.9c0.3,0.4,0.7,0.7,1.1,1l34.5,19.8
				c1,0.6,2.1,0.7,3.2,0.4l36.3-66.4C105.9,140.4,105.6,140.1,105.2,139.9L105.2,139.9z"/>
		</g>
		<defs>
			<filter id="Adobe_OpacityMaskFilter_1_" filterUnits="userSpaceOnUse" x="30" y="112.8" width="78.5" height="95.5">
				<feColorMatrix  type="matrix" values="1 0 0 0 0  0 1 0 0 0  0 0 1 0 0  0 0 0 1 0"/>
			</filter>
		</defs>
		<mask maskUnits="userSpaceOnUse" x="30" y="112.8" width="78.5" height="95.5" id="mask-3_3_">
			<g class="st8">
				<path id="path-2_4_" class="st4" d="M70.8,120.1c-1.3-0.7-2.9-0.7-4.2,0l-34.3,19.8c-1.3,0.7-2,2.1-2,3.6v39.7
					c0,1.5,0.8,2.9,2,3.6l34.3,19.8c1.3,0.7,2.9,0.7,4.2,0l34.3-19.8c1.3-0.7,2-2.1,2-3.6v-39.7c0-1.5-0.8-2.9-2-3.6L70.8,120.1
					L70.8,120.1z"/>
			</g>
		</mask>
		<g class="st9">
			<g transform="translate(0.000000, -9.246050)">
				<path class="st6" d="M107.5,192.5v-39.7c0-1.5-0.9-2.9-2.2-3.6l-34.5-19.8c-0.4-0.2-0.8-0.4-1.3-0.5l37.8,64.5
					C107.4,193.1,107.5,192.8,107.5,192.5L107.5,192.5z"/>
				<path class="st6" d="M32.2,149.2c-1.3,0.7-2.2,2.1-2.2,3.6v39.7c0,1.5,1,2.9,2.2,3.6l34.5,19.8c0.8,0.5,1.7,0.7,2.7,0.5
					l-36.9-67.3L32.2,149.2L32.2,149.2z"/>
				
					<linearGradient id="SVGID_2_" gradientUnits="userSpaceOnUse" x1="-169.8986" y1="92.5323" x2="-101.158" y2="92.5323" gradientTransform="matrix(0.9246 0 0 -0.3467 193.3351 154.2804)">
					<stop  offset="9.191646e-02" style="stop-color:#72B84D"/>
					<stop  offset="0.2864" style="stop-color:#6AB64A"/>
					<stop  offset="0.5968" style="stop-color:#54A043"/>
					<stop  offset="0.8624" style="stop-color:#448840"/>
				</linearGradient>
				<path class="st10" d="M65.5,122.1l-0.5,0.2h0.7L65.5,122.1z"/>
				
					<linearGradient id="SVGID_3_" gradientUnits="userSpaceOnUse" x1="124.7193" y1="438.4465" x2="125.4665" y2="438.4465" gradientTransform="matrix(106.3296 0 0 -124.2334 -13232.3037 54642.3008)">
					<stop  offset="9.191646e-02" style="stop-color:#72B84D"/>
					<stop  offset="0.2864" style="stop-color:#6AB64A"/>
					<stop  offset="0.5968" style="stop-color:#54A043"/>
					<stop  offset="0.8624" style="stop-color:#448840"/>
				</linearGradient>
				<path class="st11" d="M105.3,196c1-0.6,1.7-1.5,2-2.6l-37.8-64.6c-1-0.2-2-0.1-2.9,0.5l-34.3,19.7l36.9,67.4
					c0.5-0.1,1.1-0.2,1.5-0.5L105.3,196L105.3,196z"/>
				
					<linearGradient id="SVGID_4_" gradientUnits="userSpaceOnUse" x1="-702.116" y1="328.3328" x2="-633.3754" y2="328.3328" gradientTransform="matrix(0.3467 0 0 -0.809 327.942 460.8999)">
					<stop  offset="9.191646e-02" style="stop-color:#72B84D"/>
					<stop  offset="0.2864" style="stop-color:#6AB64A"/>
					<stop  offset="0.5968" style="stop-color:#54A043"/>
					<stop  offset="0.8624" style="stop-color:#448840"/>
				</linearGradient>
				<path class="st12" d="M108.5,195.4l-0.2-0.4v0.6L108.5,195.4z"/>
				
					<linearGradient id="SVGID_5_" gradientUnits="userSpaceOnUse" x1="121.7013" y1="436.7547" x2="123.1454" y2="436.7547" gradientTransform="matrix(55.014 0 0 -34.326 -6666.229 15197.4912)">
					<stop  offset="9.191646e-02" style="stop-color:#72B84D"/>
					<stop  offset="0.2864" style="stop-color:#6AB64A"/>
					<stop  offset="0.5968" style="stop-color:#54A043"/>
					<stop  offset="0.8624" style="stop-color:#448840"/>
				</linearGradient>
				<path class="st13" d="M105.3,196l-34.4,19.8c-0.5,0.2-1,0.4-1.5,0.5l0.7,1.2l38.2-22.1V195l-1-1.6
					C107,194.5,106.3,195.5,105.3,196L105.3,196z"/>
				
					<linearGradient id="SVGID_6_" gradientUnits="userSpaceOnUse" x1="123.3546" y1="438.5973" x2="122.4639" y2="435.6853" gradientTransform="matrix(55.014 0 0 -34.326 -6666.229 15197.4912)">
					<stop  offset="0" style="stop-color:#448840"/>
					<stop  offset="0.3288" style="stop-color:#428C3E"/>
					<stop  offset="0.6352" style="stop-color:#439637"/>
					<stop  offset="0.9319" style="stop-color:#41AA34"/>
					<stop  offset="1" style="stop-color:#46AC34"/>
				</linearGradient>
				<path class="st14" d="M105.3,196l-34.4,19.8c-0.5,0.2-1,0.4-1.5,0.5l0.7,1.2l38.2-22.1V195l-1-1.6
					C107,194.5,106.3,195.5,105.3,196L105.3,196z"/>
			</g>
		</g>
	</g>
</g>
</svg>
