<?xml version="1.0" encoding="utf-8"?>
<!-- Generator: Adobe Illustrator 24.1.2, SVG Export Plug-In . SVG Version: 6.00 Build 0)  -->
<svg version="1.1" id="Capa_1" xmlns="http://www.w3.org/2000/svg" xmlns:xlink="http://www.w3.org/1999/xlink" x="0px" y="0px"
	 viewBox="0 0 500 500" style="enable-background:new 0 0 500 500;" xml:space="preserve">
<style type="text/css">
	.st0{fill:#549E42;}
	.st1{fill:#343434;}
	.st2{fill:url(#path-2_2_);}
	.st3{filter:url(#Adobe_OpacityMaskFilter);}
	.st4{fill:#FFFFFF;}
	.st5{mask:url(#mask-3_4_);}
	.st6{fill:none;}
	.st7{fill:url(#SVGID_1_);}
	.st8{filter:url(#Adobe_OpacityMaskFilter_1_);}
	.st9{mask:url(#mask-3_3_);}
	.st10{fill-rule:evenodd;clip-rule:evenodd;fill:url(#SVGID_2_);}
	.st11{fill-rule:evenodd;clip-rule:evenodd;fill:url(#SVGID_3_);}
	.st12{fill-rule:evenodd;clip-rule:evenodd;fill:url(#SVGID_4_);}
	.st13{fill-rule:evenodd;clip-rule:evenodd;fill:url(#SVGID_5_);}
	.st14{fill-rule:evenodd;clip-rule:evenodd;fill:url(#SVGID_6_);}
	.st15{fill:#2E2815;}
	.st16{fill:#DF4C36;}
	.st17{fill:#56C2DE;}
	.st18{font-family:'Poppins-Bold';}
	.st19{font-size:39.1216px;}
	.st20{fill:#E44E28;}
	.st21{fill:#EC662B;}
	.st22{fill:#EBEBEB;}
	.st23{fill:#E8A50A;}
	.st24{fill:#F3C100;}
	.st25{fill:#F1F1F2;}
	.st26{fill:#3655A2;}
	.st27{fill:#3C61AB;}
</style>
<g>
	<g>
		<path class="st4" d="M86.9,216.8c0,24.6,24.1,47.6,62,60.6c-7.6,38.1-1.4,68.9,19.4,80.8c21.3,12.3,53.1,3.8,83.3-22.6
			c29.4,25.3,59.1,35.3,79.9,23.3c21.3-12.3,27.8-45.2,20-84.5c39.5-13.1,61.6-32.7,61.6-57.6c0-24.1-24.1-44.9-61.5-57.8
			c8.4-40.9,1.3-70.9-20.3-83.4c-20.8-12-50.9-1.5-80.8,24.4c-31.1-27.6-60.8-36-82.4-23.5c-20.8,12.1-26.8,43.3-19.2,82.2
			C112.2,171.5,86.9,192.8,86.9,216.8z"/>
		<path class="st17" d="M343.7,171.8c-3-1-6.1-2-9.3-2.9c0.5-2.2,1-4.3,1.4-6.4c7.1-34.3,2.4-61.9-13.3-71
			c-15.1-8.7-39.8,0.4-64.8,22.1c-2.4,2.1-4.8,4.3-7.2,6.6c-1.6-1.5-3.2-3-4.8-4.4c-26.2-23.2-52.4-33-68.1-23.9
			c-15.1,8.7-19.6,34.7-13.2,67.2c0.6,3.1,1.3,6.3,2.1,9.6c-3.7,1.1-7.3,2.2-10.7,3.4c-30.7,10.7-50.3,27.5-50.3,44.8
			c0,18,21,36,53,46.9c2.5,0.9,5.1,1.7,7.8,2.5c-0.9,3.5-1.6,7-2.3,10.3c-6.1,31.9-1.3,57.3,13.7,65.9c15.6,9,41.7-0.3,67.1-22.5
			c2-1.8,4-3.6,6-5.6c2.6,2.5,5.2,4.9,7.8,7.1c24.6,21.2,48.9,29.7,64,21c15.5-9,20.6-36.2,14-69.3c-0.5-2.5-1.1-5.1-1.7-7.7
			c1.8-0.5,3.6-1.1,5.4-1.7c33.2-11,54.8-28.8,54.8-47C395.2,199.5,375,182.6,343.7,171.8L343.7,171.8L343.7,171.8z"/>
		<path class="st4" d="M336.5,252.2c-1.6,0.5-3.2,1-4.9,1.5c-3.7-11.6-8.6-24-14.7-36.7c5.8-12.4,10.5-24.6,14.1-36.2
			c3,0.9,5.8,1.8,8.6,2.7c26.8,9.2,43.2,22.9,43.2,33.4C382.8,228.1,365.1,242.7,336.5,252.2L336.5,252.2L336.5,252.2z M324.6,275.7
			c2.9,14.6,3.3,27.9,1.4,38.2c-1.7,9.3-5.2,15.5-9.5,18c-9.1,5.3-28.7-1.6-49.7-19.7c-2.4-2.1-4.8-4.3-7.3-6.6
			c8.2-8.9,16.3-19.3,24.3-30.8c14-1.2,27.2-3.3,39.2-6C323.6,271.1,324.1,273.4,324.6,275.7L324.6,275.7L324.6,275.7z M204.2,331
			c-8.9,3.2-16,3.2-20.3,0.8c-9.1-5.3-12.9-25.6-7.8-52.9c0.6-3.1,1.3-6.3,2.1-9.6c11.9,2.6,25,4.5,39,5.7
			c8,11.3,16.4,21.6,24.9,30.7c-1.8,1.8-3.7,3.5-5.5,5.1C225.4,320.6,214.2,327.5,204.2,331L204.2,331L204.2,331z M162.4,252.1
			c-14.1-4.8-25.8-11.1-33.8-18c-7.2-6.2-10.8-12.3-10.8-17.2c0-10.5,15.7-24,42-33.2c3.2-1.1,6.5-2.2,10-3.1
			c3.6,11.8,8.4,24.1,14.1,36.6c-5.8,12.7-10.6,25.2-14.3,37.1C167.1,253.6,164.7,252.9,162.4,252.1L162.4,252.1L162.4,252.1z
			 M176.5,156.7c-5.4-27.8-1.8-48.8,7.3-54.1c9.7-5.6,31.1,2.4,53.7,22.4c1.4,1.3,2.9,2.6,4.3,4c-8.4,9-16.7,19.3-24.7,30.5
			c-13.6,1.3-26.7,3.3-38.7,6C177.7,162.6,177,159.6,176.5,156.7L176.5,156.7L176.5,156.7z M301.4,187.6c-2.9-5-5.8-9.8-8.8-14.5
			c9.2,1.2,18.1,2.7,26.4,4.6c-2.5,8-5.6,16.4-9.3,24.9C307.1,197.7,304.4,192.6,301.4,187.6L301.4,187.6L301.4,187.6z M250.5,137.9
			c5.7,6.2,11.4,13.1,17,20.6c-5.7-0.3-11.4-0.4-17.2-0.4c-5.7,0-11.4,0.1-17.1,0.4C238.9,151.1,244.7,144.2,250.5,137.9
			L250.5,137.9L250.5,137.9z M199.2,187.7c-2.9,5-5.6,10-8.2,15c-3.6-8.5-6.7-17-9.2-25.1c8.3-1.8,17.1-3.4,26.3-4.5
			C205,177.8,202,182.7,199.2,187.7L199.2,187.7L199.2,187.7z M208.3,261.6c-9.5-1.1-18.4-2.5-26.7-4.3c2.6-8.3,5.7-16.8,9.4-25.6
			c2.6,5,5.3,10,8.2,15h0C202.2,251.8,205.2,256.8,208.3,261.6L208.3,261.6L208.3,261.6z M250.8,296.7c-5.9-6.3-11.7-13.3-17.4-20.9
			c5.5,0.2,11.2,0.3,17,0.3c5.9,0,11.7-0.1,17.5-0.4C262.2,283.5,256.5,290.5,250.8,296.7L250.8,296.7L250.8,296.7z M309.9,231.3
			c3.9,8.8,7.1,17.4,9.7,25.5c-8.4,1.9-17.5,3.5-27,4.6c3-4.8,6-9.7,8.9-14.7C304.4,241.6,307.2,236.4,309.9,231.3L309.9,231.3
			L309.9,231.3z M290.8,240.5c-4.5,7.9-9.2,15.3-13.9,22.4c-8.6,0.6-17.5,0.9-26.5,0.9c-9,0-17.8-0.3-26.2-0.8
			c-4.9-7.2-9.7-14.7-14.2-22.5h0c-4.5-7.8-8.6-15.6-12.4-23.3c3.7-7.8,7.9-15.6,12.3-23.4l0,0c4.5-7.8,9.2-15.2,14-22.4
			c8.6-0.7,17.5-1,26.4-1h0c9,0,17.8,0.3,26.4,1c4.8,7.1,9.5,14.5,14,22.3c4.5,7.8,8.7,15.6,12.5,23.2
			C299.4,224.8,295.3,232.6,290.8,240.5L290.8,240.5L290.8,240.5z M316.3,102.3c9.7,5.6,13.5,28.2,7.4,57.7
			c-0.4,1.9-0.8,3.8-1.3,5.8c-12-2.8-25.1-4.8-38.7-6.1c-8-11.3-16.2-21.6-24.5-30.6c2.2-2.1,4.4-4.2,6.7-6.1
			C287.2,104.4,307.2,97,316.3,102.3L316.3,102.3L316.3,102.3z"/>
		<path class="st17" d="M250.3,191c14.3,0,25.9,11.6,25.9,25.9c0,14.3-11.6,25.9-25.9,25.9c-14.3,0-25.9-11.6-25.9-25.9
			C224.5,202.6,236,191,250.3,191"/>
	</g>
	<text transform="matrix(1 0 0 1 165.7731 405.6225)" class="st18 st19">React Js</text>
</g>
</svg>
