<?xml version="1.0" encoding="utf-8"?>
<!-- Generator: Adobe Illustrator 24.1.2, SVG Export Plug-In . SVG Version: 6.00 Build 0)  -->
<svg version="1.1" id="Capa_1" xmlns="http://www.w3.org/2000/svg" xmlns:xlink="http://www.w3.org/1999/xlink" x="0px" y="0px"
	 viewBox="0 0 500 500" style="enable-background:new 0 0 500 500;" xml:space="preserve">
<style type="text/css">
	.st0{fill:#549E42;}
	.st1{fill:#343434;}
	.st2{fill:url(#path-2_2_);}
	.st3{filter:url(#Adobe_OpacityMaskFilter);}
	.st4{fill:#FFFFFF;}
	.st5{mask:url(#mask-3_4_);}
	.st6{fill:none;}
	.st7{fill:url(#SVGID_1_);}
	.st8{filter:url(#Adobe_OpacityMaskFilter_1_);}
	.st9{mask:url(#mask-3_3_);}
	.st10{fill-rule:evenodd;clip-rule:evenodd;fill:url(#SVGID_2_);}
	.st11{fill-rule:evenodd;clip-rule:evenodd;fill:url(#SVGID_3_);}
	.st12{fill-rule:evenodd;clip-rule:evenodd;fill:url(#SVGID_4_);}
	.st13{fill-rule:evenodd;clip-rule:evenodd;fill:url(#SVGID_5_);}
	.st14{fill-rule:evenodd;clip-rule:evenodd;fill:url(#SVGID_6_);}
	.st15{fill:#2E2815;}
	.st16{fill:#DF4C36;}
	.st17{fill:#56C2DE;}
	.st18{fill:#E44E28;}
	.st19{fill:#EC662B;}
	.st20{fill:#EBEBEB;}
	.st21{fill:#E8A50A;}
	.st22{fill:#F3C100;}
	.st23{fill:#F1F1F2;}
	.st24{fill:#3655A2;}
	.st25{fill:#3C61AB;}
</style>
<g>
	<path class="st15" d="M284.1,227.1c-7.5,0-13.1,3.7-13.1,12.6c0,6.7,3.7,11.4,12.7,11.4c7.7,0,12.9-4.5,12.9-11.6
		C296.5,231.4,291.9,227.1,284.1,227.1L284.1,227.1L284.1,227.1z M269,289.9c-1.8,2.2-3.6,4.5-3.6,7.2c0,5.5,7,7.1,16.6,7.1
		c7.9,0,18.7-0.6,18.7-7.9c0-4.4-5.2-4.7-11.8-5.1L269,289.9L269,289.9z M309.5,227.5c2.5,3.1,5.1,7.5,5.1,13.8
		c0,15.2-11.9,24.1-29.1,24.1c-4.4,0-8.3-0.5-10.8-1.2l-4.5,7.2l13.4,0.8c23.7,1.5,37.6,2.2,37.6,20.4c0,15.7-13.8,24.6-37.6,24.6
		c-24.8,0-34.2-6.3-34.2-17.1c0-6.2,2.7-9.4,7.5-14c-4.5-1.9-6-5.3-6-9c0-3,1.5-5.7,4-8.3c2.5-2.6,5.2-5.2,8.5-8.2
		c-6.7-3.3-11.8-10.4-11.8-20.5c0-15.7,10.4-26.5,31.3-26.5c5.9,0,9.4,0.5,12.6,1.4h26.7v11.6L309.5,227.5L309.5,227.5z"/>
	<path class="st15" d="M346.2,202.7c-7.8,0-12.3-4.5-12.3-12.3c0-7.8,4.5-12,12.3-12c7.9,0,12.4,4.2,12.4,12
		C358.6,198.2,354.1,202.7,346.2,202.7L346.2,202.7L346.2,202.7z M328.5,284.9v-10.8l7-1c1.9-0.3,2.2-0.7,2.2-2.7v-40.2
		c0-1.5-0.4-2.5-1.8-2.9l-7.4-2.6l1.5-11.1h28.3v56.8c0,2.2,0.1,2.5,2.2,2.7l7,1v10.8H328.5L328.5,284.9z"/>
	<path class="st15" d="M421.6,279.6c-5.9,2.9-14.5,5.5-22.3,5.5c-16.3,0-22.4-6.6-22.4-22v-35.8c0-0.8,0-1.4-1.1-1.4h-9.6v-12.2
		c12-1.4,16.8-7.4,18.3-22.3h13v19.4c0,1,0,1.4,1.1,1.4h19.3v13.7h-20.4v32.7c0,8.1,1.9,11.2,9.3,11.2c3.8,0,7.8-1,11.1-2.2
		L421.6,279.6"/>
	<path class="st16" d="M218.9,243.7l-62.5-62.5c-3.6-3.6-9.4-3.6-13,0l-13,13l16.5,16.5c3.8-1.3,8.2-0.4,11.3,2.6
		c3.1,3.1,3.9,7.5,2.6,11.3l15.9,15.9c3.8-1.3,8.3-0.5,11.3,2.6c4.3,4.3,4.3,11.2,0,15.5c-4.3,4.3-11.2,4.3-15.5,0
		c-3.2-3.2-4-8-2.4-11.9l-14.8-14.8l0,39c1,0.5,2,1.2,2.9,2.1c4.3,4.3,4.3,11.2,0,15.5c-4.3,4.3-11.2,4.3-15.5,0
		c-4.3-4.3-4.3-11.2,0-15.5c1.1-1.1,2.3-1.9,3.6-2.4v-39.3c-1.3-0.5-2.5-1.3-3.6-2.4c-3.2-3.2-4-8-2.4-12L124,200.5l-42.9,42.9
		c-3.6,3.6-3.6,9.4,0,13.1l62.5,62.5c3.6,3.6,9.4,3.6,13,0l62.3-62.3C222.5,253.1,222.5,247.3,218.9,243.7"/>
</g>
</svg>
