<?xml version="1.0" encoding="utf-8"?>
<!-- Generator: Adobe Illustrator 24.1.2, SVG Export Plug-In . SVG Version: 6.00 Build 0)  -->
<svg version="1.1" id="Capa_1" xmlns="http://www.w3.org/2000/svg" xmlns:xlink="http://www.w3.org/1999/xlink" x="0px" y="0px"
	 viewBox="0 0 500 500" style="enable-background:new 0 0 500 500;" xml:space="preserve">
<style type="text/css">
	.st0{fill:#549E42;}
	.st1{fill:#343434;}
	.st2{fill:url(#path-2_2_);}
	.st3{filter:url(#Adobe_OpacityMaskFilter);}
	.st4{fill:#FFFFFF;}
	.st5{mask:url(#mask-3_4_);}
	.st6{fill:none;}
	.st7{fill:url(#SVGID_1_);}
	.st8{filter:url(#Adobe_OpacityMaskFilter_1_);}
	.st9{mask:url(#mask-3_3_);}
	.st10{fill-rule:evenodd;clip-rule:evenodd;fill:url(#SVGID_2_);}
	.st11{fill-rule:evenodd;clip-rule:evenodd;fill:url(#SVGID_3_);}
	.st12{fill-rule:evenodd;clip-rule:evenodd;fill:url(#SVGID_4_);}
	.st13{fill-rule:evenodd;clip-rule:evenodd;fill:url(#SVGID_5_);}
	.st14{fill-rule:evenodd;clip-rule:evenodd;fill:url(#SVGID_6_);}
	.st15{fill:#2E2815;}
	.st16{fill:#DF4C36;}
	.st17{fill:#56C2DE;}
	.st18{fill:#E44E28;}
	.st19{fill:#EC662B;}
	.st20{fill:#EBEBEB;}
	.st21{fill:#E8A50A;}
	.st22{fill:#F3C100;}
	.st23{fill:#F1F1F2;}
	.st24{fill:#3655A2;}
	.st25{fill:#3C61AB;}
	.st26{font-family:'Poppins-Bold';}
	.st27{font-size:38.3699px;}
</style>
<g>
	<g id="layer1" transform="translate(-193.633,-276.3622)">
		<g id="g3013" transform="translate(119,276.3622)">
			<polygon id="polygon2989" class="st24" points="469.7,110.3 443.3,406.5 324.5,439.4 205.9,406.5 179.5,110.3 			"/>
			<polygon id="polygon2991" class="st25" points="420.7,387.6 443.2,134.5 324.6,134.5 324.6,414.2 			"/>
			<polygon id="polygon2993" class="st20" points="240.1,244.4 243.3,280.7 324.6,280.7 324.6,244.4 			"/>
			<polygon id="polygon2995" class="st20" points="324.6,170.8 324.5,170.8 233.5,170.8 236.8,207.2 324.6,207.2 			"/>
			<polygon id="polygon2997" class="st20" points="324.6,376.5 324.6,338.7 324.5,338.8 284,327.8 281.4,298.9 261.8,298.9 
				245,298.9 250,355.9 324.5,376.6 			"/>
			<polygon id="polygon3005" class="st4" points="369.2,280.7 365,327.8 324.5,338.7 324.5,376.5 399,355.9 399.5,349.8 
				408.1,254.1 409,244.4 415.5,170.8 324.5,170.8 324.5,207.2 375.7,207.2 372.4,244.4 324.5,244.4 324.5,280.7 			"/>
		</g>
	</g>
	<g>
		<text transform="matrix(1 0 0 1 200.1769 93.314)" class="st26 st27">CSS3</text>
	</g>
</g>
</svg>
